<?xml version="1.0" encoding="iso-8859-1"?>
<!-- Generator: Adobe Illustrator 19.0.0, SVG Export Plug-In . SVG Version: 6.00 Build 0)  -->
<svg xmlns="http://www.w3.org/2000/svg" xmlns:xlink="http://www.w3.org/1999/xlink" version="1.1" id="Capa_1" x="0px" y="0px" viewBox="0 0 511.997 511.997" style="enable-background:new 0 0 511.997 511.997;" xml:space="preserve">
<path style="fill:#77916A;" d="M126.704,192.658c-1.691,9.363-4.226,18.65-7.179,27.632c-1.703,4.899-3.405,9.798-5.108,14.696  c-1.668,4.799-3.342,9.614-4.436,14.583c-0.408,1.852-0.272,3.425-0.368,5.261c-0.115,2.228-1.022,4.498-1.398,6.705  c-1.64,9.645-0.819,19.489,0.016,29.169c0.762,8.83,1.607,17.725,0.814,26.584c-0.426,4.755-1.324,9.451-1.804,14.199  c-0.201,1.984,0.104,3.747,0.057,5.688c-0.061,2.522-0.242,5.046-0.342,7.568c-0.395,9.866-0.519,19.773,0.487,29.609  c0.56,5.479,1.47,10.945,1.405,16.452c-0.087,7.371-1.917,14.615-2.36,21.973c-0.22,3.65-0.589,8.481,1.188,11.825  c2.221,4.179,2.889,8.28,2.257,13.001c-0.708,5.285-2.459,10.497-2.09,15.816c0.65,9.38,7.579,16.899,13.234,24.411  c3.487,4.632,6.653,9.589,10.987,13.441c4.582,4.072,10.25,6.708,15.97,8.909c9.059,3.486,18.507,6.034,28.15,7.132  c8.835,1.006,17.76,0.792,26.646,0.46c27.183-1.017,54.654-3.194,80.466-11.781c4.693-1.562,9.442-3.406,13.086-6.751  c2.643-2.426,4.581-5.543,6.007-8.835c3.449-7.962,3.773-17.245,0.962-25.448c-0.692-2.021-1.533-4.148-2.734-5.926  c-0.875-1.298-2.016-2.167-2.605-3.661c-1.779-4.505-3.118-9.02-5.386-13.344c-1.119-2.132-2.345-4.208-3.674-6.217  c-2.827-4.271-6.128-8.263-8.361-12.873c-3.59-7.411-4.178-15.938-3.628-24.155c0.55-8.216,2.167-16.333,2.743-24.548  c0.311-4.437,0.303-8.986-1.076-13.215c-0.522-1.602-1.238-3.148-1.561-4.802c-0.966-4.952,1.686-9.783,3.624-14.44  c0.973-2.338,2.113-5.114,1.972-7.659c-0.122-2.189,0.324-4.291,2.806-5.054c2.329-0.716,4.816,0.163,7.092,1.031  c5.761,2.197,11.521,4.394,17.282,6.59c3.598,1.372,7.26,2.78,10.266,5.187c3.35,2.683,6.002,6.649,10.18,7.634  c1.971,0.465,4.036,0.182,6.053,0.362c5.6,0.5,10.241,4.457,14.093,8.553s7.508,8.654,12.598,11.044  c3.503,1.646,7.429,2.128,11.289,2.415c5.277,0.392,10.578,0.458,15.863,0.199c4.012-0.198,8.42-0.776,11.103-3.767  c-5.018-2.596-10.729-3.61-15.778-6.145c-6.813-3.421-11.963-9.359-16.926-15.147c-2.798-3.264-5.596-6.527-8.395-9.791  c-1.57-1.832-3.187-3.748-3.81-6.079c-0.979-3.664,0.753-7.592,3.323-10.381s5.905-4.727,8.985-6.94  c3.98-2.86,6.552-7.014,12.093-6.032c3.203,0.567,6.012,2.412,8.719,4.214c4.543,3.024,9.085,6.048,13.628,9.073  c1.549,1.031,3.135,2.079,4.933,2.561c1.798,0.481,3.879,0.304,5.283-0.917c1.377-1.198,1.841-3.107,2.275-4.881  c1.34-5.475,3.089-10.849,5.229-16.063c1.359-3.312,2.901-6.674,2.949-10.253c0.061-4.509-2.247-8.677-3.245-13.075  c-1.081-4.763-1.158-10.368-0.626-15.186c0.575-5.203,0.291-10.673-2.027-15.453c-4.932-10.167-17.258-14.317-24.592-22.914  c-2.286-2.68-4.057-5.764-6.296-8.482c-4.26-5.171-10.038-8.824-15.712-12.386c-1.723-1.082-3.534-2.055-5.223-3.185  c-1.03-0.689-2.119-2.025-3.397-2.229c-1.687-0.27-2.241,1.602-3.569,1.702c-1.533,0.116-1.913-2.928-2.274-4.017  c-0.284-0.855-1.121-1.806-1.55-2.703c-0.811-1.694-2.061-2.972-3.771-3.708c-2.065-0.888-3.496-2.301-5.175-3.804  c-3.877-3.472-7.755-6.944-11.632-10.416c-7.754-6.944-15.509-13.888-23.264-20.832c-2.685-2.405-5.434-4.892-7.03-8.123  c-1.124-2.274-1.674-4.909-3.417-6.752c-2.52-2.666-6.638-2.828-10.004-4.286c-4.042-1.75-7.082-5.179-10.709-7.533  c-3.956-2.567-6.714-6.257-9.059-10.293c-2.619-4.508-4.866-9.332-8.489-13.08c-3.623-3.748-9.095-6.275-14.076-4.739  c-3.833,1.182-6.674,4.5-10.425,5.92c-2.42,0.917-5.106,0.996-7.487,2.012c-6.919,2.952-9.567,12.906-16.972,14.233  c-5.3,0.95-10.042-3.117-15.149-4.819c-8.201-2.733-17.042,0.756-24.975,4.19c-2.978,1.289-5.956,2.578-8.934,3.867  c-3.111,1.347-6.219,2.792-9.015,4.729c-2.57,1.78-3.529,3.335-4.797,6.017c-1.388,2.936-3.829,5.439-5.453,8.274  c-1.717,2.997-3.081,6.225-3.642,9.649c-0.624,3.799-0.249,7.706-0.831,11.511c-1.546,10.115-9.517,18.101-12.429,27.91  c-0.788,2.653-1.192,5.402-1.667,8.128C126.823,191.993,126.765,192.326,126.704,192.658z"/>
<g>
	<path style="fill:#C5D8BA;" d="M282.966,319.15c-0.186,10.705-5.089,25.575-10.533,35.066   c-7.146,12.458-22.015,17.771-22.946,33.65c-0.636,10.834-2.15,21.718-4.1,32.426c-1.003,5.511-3.467,10.936-3.257,16.57   c0.586,15.733,11.856,29.806,12.812,45.314c1.243,20.148-16.408,26.135-32.705,26.87c-9.762,0.44-20.4,2.132-29.759-1.51   c-6.793-2.643-10.207-9.729-14.539-15.301c-6.012-7.733-13.675-13.777-19.357-21.743c-9.736-13.647-14.391-36.888-5.491-51.955   c3.14-5.315,5.37-11.047,8.496-16.351c4.777-8.106,10.735-9.795,18.684-13.444c13.969-6.412,14.541-32.813,21.098-45.007   c4.342-8.074,12.524-11.906,20.189-16.425c4.491-2.647,8.955-7.798,13.618-9.522c5.098-1.884,8.032,0.258,12.941,1.398   C257.035,321.257,268.948,316.978,282.966,319.15z"/>
	<path style="fill:#C5D8BA;" d="M176.689,341.569c-1.659,4.752-1.987,10.983-4.067,14.537c-3.398,5.804-8.402,10.493-12.958,15.363   c-10.103,10.8-1.429,17.761,9.828,10.533c10.27-6.594,17.149-23.298,19.369-35.011c0.953-5.028-0.303-14.463-7.594-11.282   C178.963,336.712,177.618,338.909,176.689,341.569z"/>
	<path style="fill:#C5D8BA;" d="M176.641,505.86c-5.008-6.22-7.214-14.366-13.073-20.777c-2.905-3.18-18.765-15.527-17.613-3.718   c0.58,5.934,8.584,16.292,13.277,19.909C163.79,504.785,169.678,506.611,176.641,505.86z"/>
	<path style="fill:#C5D8BA;" d="M250.881,446.468c-2.238-6.867-1.913-16.06-0.019-22.937c1.587-5.765,5.672-11.367,8.519-3.24   c2.136,6.098,1.511,16.586,0.139,22.811C257.809,450.866,255.728,452.588,250.881,446.468z"/>
	<path style="fill:#C5D8BA;" d="M207.873,315.396c-5.395,1.297-12.63,3.533-15.906,8.424c-5.69,8.493,3.557,10.641,9.861,7.586   c4.636-2.246,13.877-2.726,16.612-7.579C222.046,317.43,214.668,314.055,207.873,315.396z"/>
</g>
<g>
	<path style="fill:#AC9E7F;" d="M92.838,8.398c-3.509,30.338,14.276,63.98,28.01,89.782c3.467,6.514,7.864,12.391,11.136,18.971   c2.394,4.815,6.407,16.866,14.173,14.932c4.061-1.011,4.532-6.57,6.934-9.313c4.16-4.751,11.098-7.017,16.906-9.002   c4.17-1.425,16.313-4.01,17.959-8.291c-2.941-3.754-7.344-5.744-11.33-8.051c-6.628-3.837-12.694-9.062-18.945-13.582   c-9.578-6.926-18.869-13.107-27.505-21.261c-3.122-2.947-6.405-5.728-9.371-8.834c-9.569-10.025-13.516-23.314-18.917-35.795   C100.021,13.638,97.883,9.167,92.838,8.398z"/>
	<path style="fill:#AC9E7F;" d="M226.305,101.38c0-12.674-1.612-19.538-8.219-30.206c-5.438-8.781-12.669-17.083-19.816-24.452   c-8.805-9.078-18.195-17.619-26.558-27.069c-2.314-2.617-16.037-16.009-9.401-17.349c1.541-0.311,6.98,2.535,8.698,3.082   c3.368,1.073,6.151,2.28,9.103,4.334c6.915,4.814,14.408,8.674,21.492,13.297c8.872,5.79,16.07,13.896,23.308,21.542   c7.142,7.545,14.42,14.916,20.338,23.541c2.699,3.934,11.167,16.078,7.621,21.19c-1.778,2.564-9.385,4.278-12.396,5.901   C237.029,97.047,228.645,96.849,226.305,101.38z"/>
	<path style="fill:#AC9E7F;" d="M151.895,134.148c-11.418-5.359-22.738,0.621-34.106,2.8c-0.945,4.882,9.842,7.567,12.309,11.211   c-2.281,2.297-7.653,2.504-5.514,5.53c2.391,3.381,7.456,2.759,9.96,6.075c-2.428,1.93-4.58,1.474-7.413,1.665   c-3.489,0.235-7.204,1.699-10.579,2.582c-5.016,1.313-19.375,2.795-21.98,8.196c2.864,2.27,22.026,0.279,21.506,5.649   c-0.241,2.497-9.415,4.28-11.297,5.128c-3.946,1.779-8.979,2.601-12.606,4.923c-8.6,5.505,7.466,7.224,11.26,8.278   c5.939,1.651,11.717,3.099,17.399,5.46c1.608,0.668,4.285,1.038,4.452,3.066c0.299,3.645-9.328,6.504-11.61,7.579   c-3.832,1.802-23.647,7.657-10.418,10.945c9.102,2.262,18.609,2.287,27.585,4.806c3.539,0.993,1.943,0.646,3.944,3.228   c1.647,2.125,1.635,2.095,4.782,2.889c1.608,0.406,3.361,0.866,4.765,1.451c-2.291,2.913-7.392,4.686-10.521,6.801   c-3.091,2.089-11.673,5.597-12.94,9.079c2.507,2.943,9.772,2.284,13.448,2.837c4.243,0.639,9.851,2.18,14.048,0.65   c2.735-0.997,3.103-3.11,6.21-3.827c7.148-1.649,15.096,0.391,22.386-0.589c6.472-0.87,12.858-1.95,19.312-2.748   c4.056-0.502,6.723-0.874,7.846-5.117c1.915-7.235,0.991-14.084-7.403-14.68c-6.4-0.454-10.62,3.068-16.142,5.153   c-2.021,0.763-8.226-0.374-4.498-1.45c0.982-6.328-5.391-7.64-4.899-12.905c0.359-3.839,0.779-8.868-1.858-12.127   c-1.841-2.275-5.626-2.191-6.689-5.186c-1.501-4.233,1.268-8.031-2.717-12.055c-2.699-2.726-6.02-1.655-9.584-1.154   c-4.164,0.585-8.502,0.959-12.721,0.76c0.102-2.871-1.214-6.203-2.405-8.771c3.339-0.36,6.464,1.466,9.788,0.654   c2.93-0.715,5.732-2.94,6.872-5.527c0.688-1.562,1.255-4.845,1.067-6.604c-0.327-3.052-0.602-2.55,1.054-5.034   c1.249-1.873,3.203-2.676,2.703-5.267c-0.791-4.096-7.021-5.248-7.455-9.684c-0.419-4.295,5.562-1.607,7.456-4.277   C158.868,141.468,154.154,134.987,151.895,134.148z"/>
	<path style="fill:#AC9E7F;" d="M166.913,263.172c-3.135,0.009-10.191,2.084-11.86,5.103c-2.259,4.085,4.786,4.666,7.838,5.155   c3.679,0.59,7.467,1.024,9.08-3.032C173.729,265.979,171.471,263.867,166.913,263.172z"/>
	<path style="fill:#AC9E7F;" d="M205.483,256.004c-5.763,3.448-12.984,6.359-19.054,9.939c-2.808,1.657-10.499,2.778-7.1,5.829   c5.391,4.839,19.22,3.306,25.832,3.018c4.417-0.193,8.555-3.047,12.867-2.76c4.92,0.328,9.281,3.805,14.343,3.104   c5.326-0.736,9.779-4.024,9.311-9.913c-0.832-10.439-13.61-1.859-18.731,0.595c-3.141,1.505-4.11,2.866-6.885,0.253   C212.864,263.057,212.624,256.314,205.483,256.004z"/>
	<path style="fill:#AC9E7F;" d="M259.414,265.22c-3.938,0.016-11.639,1.466-13.639,5.304c-1.983,3.805,1.894,3.948,4.663,4.501   c2.941,0.587,8.046,3.425,11.024,2.43C266.442,275.792,265.246,266.548,259.414,265.22z"/>
	<path style="fill:#AC9E7F;" d="M194.561,175.791c-3.896-2.973-12.562-0.021-16.9,1.069c-3.333,0.838-11.579,0.473-12.979,4.221   c-1.581,4.233,8.6,8.388,11.787,9.754c4.816,2.064,10.717,3.364,15.644,1.172c2.946-1.311,5.399-3.365,5.8-6.736   C198.37,181.431,195.48,179.789,194.561,175.791z"/>
	<path style="fill:#AC9E7F;" d="M187.734,153.604c-0.868,4.232-0.554,10.567-5.188,12.927c-2.279,1.161-7.793,1.379-10.247,0.657   c-5.634-1.656-9.624-5.883-14.133-9.33c-2.47-1.888-11.121-7.396-6.398-11.021c2.15-1.65,9.073-0.165,11.656,0.016   c3.821,0.268,7.786,0.728,11.603,1.28C180.228,148.885,185.983,148.017,187.734,153.604z"/>
	<path style="fill:#AC9E7F;" d="M201.729,150.53c-1.961,2.608-2.721,8.191-2.88,10.118c-0.342,4.123,0.346,8.808,4.255,11.073   c2.367,1.371,3.653-0.675,5.812-0.309c3.022,0.513,2.913,4.013,4.147,6.369c1.559,2.974,4.425,5.146,7.867,4.854   c2.465-0.21,4.074-2.153,6.401-1.407c1.451,0.464,2.923,2.255,4.428,2.822c2.394,0.901,5.558,1.355,8.203,1.307   c4.256-0.079,6.806-2.508,10.655-0.348c2.458,1.38,3.662,2.606,6.409,3.071c2.371,0.401,3.597-0.232,5.196,1.7   c1.691,2.044,2.259,4.514,4.361,6.492c4.242,3.992,10.616,4.951,11.605-2.36c0.717-5.294-3.211-8.273-6.656-11.763   c-1.964-1.989-4.173-4.045-5.636-6.515c-1.771-2.99-2.31-6.478-4.604-9.212c-1.256-1.498-5.002-5.218-7.174-4.615   c-2.931,0.813-3.28,10.026-4.014,12.629c-1.019-1.785-1.333-3.182-3.062-4.704c-2.245-1.976-5.296-3.053-7.799-4.726   c-2.51-1.677-5.772-5.094-8.97-5.269c-4.877-0.267-1.631,3.443-3.371,6.443c-2.31-1.805-3.768-2.808-6.656-3.701   c-2.423-0.749-6.384-1.309-8.418-2.419c-3.367-1.839-4.405-10.756-7.71-10.899C203.172,149.121,202.383,149.659,201.729,150.53z"/>
	<path style="fill:#AC9E7F;" d="M246.103,128.004c-3.961,0.667-13.949,9.437-14.025,14.003c-0.089,5.364,7.595,8.765,11.899,8.89   c2.505,0.073,3.796-2.245,5.53-2.343c1.872-0.106,1.467,0.795,2.731,1.884c2.797,2.407,4.585,4.974,8.617,4.946   c6.923-0.048,8.692-10.61,6.827-16.115c-3.316-9.79-8.754,4.966-13.729,5.733c-4.329,0.667-1.598-5.09-1.783-8.04   C251.971,133.771,250.688,128.858,246.103,128.004z"/>
	<path style="fill:#AC9E7F;" d="M267.605,92.165c-5.446,5.187-7.572,21.228,1.785,23.645c3.082,0.796,5.8-1.272,8.458-0.385   c2.147,0.717,5.421,4.813,7.125,6.294c3.271,2.843,6.234,5.767,10.166,7.511c4.852,2.152,7.888,4.652,10.697,9.439   c2.102,3.583,4.416,5.786,7.833,8.108c3.001,2.04,5.345,5.047,8.218,6.876c2.819-3.372-3.073-12.828-4.187-16.483   c-1.895-6.216-2.288-12.937-4.326-19.081c-3.37-10.16-7.699,9.268-10.359,11.226c-1.83,1.346-2.884-6.356-3.022-6.801   c-1.1-3.519-3.357-6.563-4.754-9.957c-2.166-5.262-3.832-11.293-5.104-16.822c-0.232-1.011-0.328-4.582-1.673-4.959   c-1.961-0.55-4.429,3.164-5.229,4.437c-2.557,4.069-0.7,11.283-3.93,14.708c-3.895,4.13-4.561-5.213-5.064-7.919   C274.02,100.824,270.892,89.037,267.605,92.165z"/>
	<path style="fill:#AC9E7F;" d="M330.753,146.095c-3.378,0.729-4.186,8.359-3.74,11.211c0.513,3.286,3.741,6.899,7.021,7.774   c4.482,1.194,4.256-3.636,3.467-7.571c-0.779-3.889-2.219-9.78-5.797-12.068C331.058,145.576,331.041,145.931,330.753,146.095z"/>
	<path style="fill:#AC9E7F;" d="M353.622,179.204c-4.129,6.232-6.04,14.791-10.922,20.641c-5.138,6.157-5.775,0.165-7.768-5.016   c-3.887-10.107-5.969,0.856-9.368,5.419c-2.529,3.396-5.099,5.493-3.902,9.847c0.958,3.487,3.049,6.667,6.36,7.84   c7.335,2.6,14.425-3.623,10.291-11.33c1.165-1.039,3.245-1.043,4.727-0.878c2.519,0.28,3.623,1.129,6.562,0.366   c2.375-0.617,6.069-1.749,7.792-3.748c1.496-1.735,0.989-4.073,3.038-5.068c3.022-1.467,9.623,2.187,12.056-1.595   c1.463-2.275-0.953-11.585-3.233-13.064c-4.032-2.615-7.372,5.978-9.745,8.139C358.054,188.485,357.328,182.436,353.622,179.204z"/>
	<path style="fill:#AC9E7F;" d="M362.156,204.804c-1.852,1.354-9.832,11.365-8.898,14.336c0.843,2.684,8.399,3.628,10.774,3.042   c5.535-1.366,2.674-7.728,2.219-11.903C366.104,208.922,363.942,201.426,362.156,204.804z"/>
	<path style="fill:#AC9E7F;" d="M395.606,196.953c-2.452,0.362-4.244,2.302-6.395,3.513c-2.609,1.468-5.169,2.272-7.635,3.674   c-4.48,2.548-6.938,6.108-3.993,11.176c1.586,2.729,4.775,2.942,4.726,6.397c-0.033,2.377-2.276,3.987-2.352,6.459   c-0.099,3.233,2.5,6.174,4.471,8.459c2.737,3.176,7.491,8.792,11.917,9.139c7.104,0.556,12.371-5.21,16.08-10.502   c3.273-4.669,6.519-8.769,7.764-14.422c0.775-3.522,4.75-13.403,2.987-16.732c-3.692-6.972-21.724,12.773-27.178,9.837   C397.191,211.281,399.912,197.721,395.606,196.953z"/>
	<path style="fill:#AC9E7F;" d="M367.958,228.356c-3.896,4.235-13.217,8.332-15.044,13.92c-1.766,5.402,7.614,8.528,11.801,9.474   c6.438,1.455,6.922-7.535,8.018-12.429c0.626-2.796,1.684-5.688,0.44-8.517C372.565,229.422,371.069,226.402,367.958,228.356z"/>
	<path style="fill:#AC9E7F;" d="M331.777,335.535c-1.666-11.413,1.692-20.927,11.973-26.293c3.43-1.79,7.391-4.385,9.64-7.575   c2.977-4.223,3.878-8.81,9.813-10.212c2.259-0.534,4.767,0.34,7.154,0.015c4.405-0.602,9.591-1.705,13.889-2.882   c8.753-2.398,13.793-11.019,22.18-14.25c3.188-1.229,11.845-3.072,14.873,0.033c5.145,5.274,2.186,15.209-0.438,20.708   c-2.505,5.25-3.282,12.939-7.223,17.329c-4.406,4.91-11.261,0.065-16.002-2.162c-8.349-3.922-15.59-8.917-25.404-6.909   c-8.124,1.663-20.544,8.972-16.71,18.845c2.269,5.84,8.083,12.036,12.76,16.035c5.416,4.632,12.285,9.923,18.706,13.027   c3.279,1.585,6.93,3.135,10.469,3.748c2.73,0.473,6.374-0.311,4.479,3.555c-1.838,3.749-10.535,3.452-14.07,3.621   c-7.666,0.367-14.495-0.377-21.955-2.047c-5.874-1.314-11.85-4.995-15.265-9.892c-1.843-2.642-2.929-5.179-5.568-7.124   C340.874,340.005,337.343,340.09,331.777,335.535z"/>
	<path style="fill:#AC9E7F;" d="M282.966,148.484c-3.026-0.224-9.659,6.657-10.606,9.565c-0.961,2.951,4.682,7.876,7.874,8.457   C289.842,168.256,287.422,147.43,282.966,148.484z"/>
	<path style="fill:#AC9E7F;" d="M301.74,159.748c-3.294,1.294-11.18,2.929-9.222,7.859c1.454,3.662,10.316,5.824,13.942,6.06   C316.563,174.323,306.73,162.195,301.74,159.748z"/>
</g>
<g>
	<path style="fill:#637C55;" d="M110.116,295.275c0.513,4.056,1.149,8.086,1.162,12.292c0.03,9.584-2.053,18.203-4.839,27.337   c-3.818,12.523,3.287,23.321,3.744,35.877c0.115,3.171,1.153,5.881,1.38,8.978c0.259,3.527-0.771,7.153-1.497,10.572   c-1.585,7.48-2.623,15.606-1.189,23.158c1.979,10.424,1.03,20.546-0.092,31.093c-0.428,4.023-0.71,8.796,0.2,12.774   c1.451,6.342,6.407,7.258,10.552,11.593c2.844,2.974,5.778,11.824,11.232,9.056c3.528-1.79,3.984-11.25,4.291-14.351   c0.514-5.188-0.187-9.881-2.178-14.734c-2.594-6.321-12.018-11.568-11.664-18.669c0.38-7.621,8.589-5.491,11.64-10.049   c2.94-4.393-3.2-9.575-3.221-14.143c-0.017-3.648-0.21-6.669,1.051-10.104c2.297-6.253,3.862-7.769-0.59-12.933   c-4.042-4.688-10.635-9.883-9.245-16.816c1.468-7.322,5.226-1.92,9.549-1.667c1.899-3.718,0.964-8.128-0.064-11.922   c-0.853-3.146-5.026-13.447,1.172-13.985c1.728-0.15,4.289,2.217,5.919,2.641c2.41,0.625,4.837,0.701,7.05-0.573   c5.422-3.121,5.009-9.198,1.769-13.577c-2.639-3.566-8.794-4.933-9.925-9.171c-1.06-3.972,2.579-5.565,3.609-8.75   c1.667-5.155-6.322-12.376-8.8-16.551c-2.253-3.794-2.789-5.973-2.477-10.435c0.265-3.792,1.311-6.926-1.854-9.669   c-4.928-4.271-9.923-4.373-10.453-12.113c-0.212-3.095,1.076-8.974-1.346-11.564c-4.974-5.32-6.64,12.72-6.066,15.878   c1.381,7.604,0.398,15.293,0.544,22.957C109.531,290.269,109.8,292.777,110.116,295.275z"/>
	<path style="fill:#637C55;" d="M135.169,276.143c-3.225,3.523-0.273,7.806,1.06,11.399c1.581,4.258,1.711,14.04,8.981,7.855   C153.908,287.998,143.589,266.423,135.169,276.143z"/>
	<path style="fill:#637C55;" d="M148.822,306.18c-0.231-0.09-3.947,4.229-4.429,5.981c-1.584,5.766,4.319,6.909,8.356,8.96   c6.007,3.053,9.011,2.487,9.945-4.558C163.521,310.333,159.707,300.647,148.822,306.18z"/>
	<path style="fill:#637C55;" d="M137.899,346.799c-8.303,4.668,4.521,16.422,0.027,22.553c-2.44,3.33-5.544,3.133-5.188,8.76   c0.238,3.751,3.654,11.007,8.246,10.521c5.451-0.578,4.463-7.572,4.107-11.149c-0.291-2.935-1.641-7.404-0.406-10.283   c0.665-1.55,2.519-2.75,3.429-4.192c2.269-3.594,2.293-6.467,0.311-10.176C146.981,350.131,143.903,344.819,137.899,346.799z"/>
	<path style="fill:#637C55;" d="M160.769,325.636c-7.786-0.904-10.719,15.664-0.599,15.696   C171.392,341.367,170.598,322.083,160.769,325.636z"/>
	<path style="fill:#637C55;" d="M129.366,255.663c-1.786,2.815-1.386,8.876,1.003,11.293c3.817,3.863,10.687,0.215,11.817-4.3   C144.029,255.294,136.522,254.657,129.366,255.663z"/>
	<path style="fill:#637C55;" d="M136.876,425.305c-3.072-1.957-4.692,1.051-5.39,3.731c-1.078,4.134,0.441,8.777,4.152,11.077   c2.769,1.716,2.699,1.509,3.915-3.161C140.432,433.575,141.945,426.888,136.876,425.305z"/>
	<path style="fill:#637C55;" d="M135.169,491.865c-3.12-2.366-2.568-8.436-1.556-11.735c0.678-2.21,3.1-7.284,6.05-5.775   c1.407,0.72,2.344,7.19,2.88,8.661c0.936,2.568,4.486,10.362,1.351,12.758C142.008,497.215,138.237,493.709,135.169,491.865z"/>
	<path style="fill:#637C55;" d="M278.529,369.668c-2.875,4.338,0.18,11.929-0.336,16.769c-0.635,5.958-4.26,11.533-7.489,16.38   c-2.962-2-7.794-8.411-7.6-12.165c0.287-5.537,4.819-2.14,7.334-5.375c2.695-3.466-2.19-8.893-1.765-12.695   C269.043,369.283,275.796,360.593,278.529,369.668z"/>
	<path style="fill:#637C55;" d="M283.785,419.666c-4.806-4.369-10.556-6.145-15.295-0.082c-9.344,11.954,5.485,10.243,9.015,17.945   c3.416,7.453-8.951,11.697-3.646,18.987c1.717,2.359,4.703,3.897,5.706,6.796c0.977,2.822-1.546,6.803-0.06,9.206   c3.437,5.558,9.152-3.038,13.647,0.196c3.555,2.557,2.172,7.378,0.744,10.642c-0.93,2.126-3.877,6.519-0.635,7.457   c3.494,1.011,6.243-4.302,7.626-6.223c4-5.558,6.003-13.492,4.223-20.356c-1.365-5.264-4.847-9.596-7.171-14.429   c-2.354-4.897-3.267-10.119-4.733-15.307C291.98,430.164,288.3,423.771,283.785,419.666z"/>
	<path style="fill:#637C55;" d="M271.361,200.708c-2.123,2.261-2.469,4.268-5.662,5.449c-2.881,1.066-4.983,1.318-8.042,1.435   c-6.555,0.248-14.818-2.308-20.117-6.36c-4.154-3.177-3.57-5.088-1.503-9.402c1.588-3.317-0.418-4.455-3.282-5.445   c-3.567-1.232-6.94-2.015-10.471-3.358c-2.918-1.11-5.1-2.524-7.926-3.806c-2.997-1.358-6.294-2.517-9.126-0.281   c-2.932,2.315-2.846,6.449-4.039,9.739c-1.331,3.67-3.52,5.649-5.875,8.652c-4.849,6.183-8.464,15.041-3.47,22.376   c3.413,5.012,11.03,2.172,16.073,4.238c4.892,2.004,5.495,7.556,7.436,11.755c4.221,9.13,16.643,17.602,26.472,18.818   c9.035,1.119,17.411-3.752,26.246-1.033c5.498,1.691,10.743,3.945,16.279,5.578c7.578,2.235,9.693,6.375,11.237,14.005   c1.03,5.09,0.288,11.362,3.681,15.594c3.836,4.784,9.373,5.205,15,4.41c7.411-1.047,18.087-4.166,22.832-10.644   c6.797-9.281,2.476-22.753-6.165-28.81c-4.196-2.942-10.056-5.472-10.774-10.767c-0.73-5.377-2.063-4.471-6.82-6.655   c-3.231-1.483-4.741-3.089-5.438-6.478c-0.452-2.194-0.027-5.695-1.744-7.496c-1.747-1.833-4.14-0.991-6.313-1.759   c-3.791-1.34-4.444-4.333-4.61-8.07c-0.268-6.019-3.027-6.542-8.59-8.444C282.571,202.555,275.978,200.041,271.361,200.708z"/>
	<path style="fill:#637C55;" d="M196.715,142.042c4.478,1.489,11.234-0.525,15.366-2.383c4.911-2.209,7.963-7.232,12.798-9.968   c3.41-1.93,6.139-3.311,7.212-7.51c2.511-9.818,6.942-12.116,16.245-15.981c5.817-2.417,11.07-7.232,6.455-13.913   c-3.184-4.609-6.326,1.005-10.393,2.051c-4.063,1.045-9.507,0.432-12.863,3.529c-2.52,2.326-2.509,5.397-5.796,7.028   c-1.841,0.914-3.3,0.953-5.084,2.207c-1.587,1.117-2.765,2.633-4.243,3.85c-4.416,3.64-5.896,0.814-10.034-1.516   c-2.034-1.145-4.356-2.445-6.696-2.82c-1.134-0.182-3.268,0.464-4.099,0.225c-8.613-2.483-17.645,2.022-25.49,5.606   c-5.218,2.384-14.528,6.058-10.016,13.146c3.168,4.975,8.585,2.686,13.225,1.388c6.087-1.703,9.087-2.877,12.688,2.735   C188.574,133.744,191.746,140.389,196.715,142.042z"/>
	<path style="fill:#637C55;" d="M253.271,112.303c-4.421-2.076-13.649,2.968-14.544,7.178c4.698,2.833,10.917-0.166,15.408,3.336   c1.971,1.537,6.091,6.971,9.579,4.498C270.342,122.614,258.214,113.207,253.271,112.303z"/>
	<path style="fill:#637C55;" d="M222.892,139.268c-4.594-0.38-9.769,2.775-12.386,6.413c-3.94,5.478,0.78,9.983,6.846,10.26   c3.987,0.182,10.342-3.872,11.039-8.16C229.105,143.394,225.921,139.083,222.892,139.268z"/>
	<path style="fill:#637C55;" d="M287.404,133.124c-2.362-2.842-7.114-3.354-10.412-2.245c-6.705,2.257-3.827,7.128,0.171,10.607   c3.328,2.895,12.38,6.112,16.834,4.117C299.796,143.007,294.314,136.605,287.404,133.124z"/>
	<path style="fill:#637C55;" d="M328.364,171.012c-0.886-4.209-7.094-2.307-9.591-1.169c-8.908,4.06-4.661,9.19-1.749,15.997   c1.68,3.928,5.273,6.732,9.512,3.348C331.6,185.144,330.092,175.313,328.364,171.012z"/>
	<path style="fill:#637C55;" d="M286.38,274.777c-2.099-2.168-4.642-4.809-7.839-3.208c-9.838,4.928-1.033,12.537,1.37,17.959   c1.396,3.148,1.24,10.667,6.542,7.979C293.705,293.834,292.33,279.109,286.38,274.777z"/>
	<path style="fill:#637C55;" d="M362.838,260.442c-2.509-1.137-6.455,1.497-8.191,3.094c-5.555,5.111-4.777,11.702,1.644,15.099   c5.659,2.994,11.992,0.936,14.631-5.306C372.65,269.245,369.689,261.991,362.838,260.442z"/>
</g>
<path style="fill:#FFFFFF;" d="M255.318,187.737c-6.173,0.623-20.767-2.198-20.146,7.519c0.427,6.68,11.146,12.356,17.061,13.447  c4.619,0.852,18.723-1.002,17.391-8.136c-0.454-2.43-3.833-3.466-5.346-4.964C261.435,192.789,260.873,189.747,255.318,187.737z"/>
<g>
	<path style="fill:#938567;" d="M148.656,118.954c-3.117-2.909-5.254-6.921-8-10.26c-3.355-4.08-6.249-8.554-8.92-13.106   c-5.192-8.85-7.954-18.853-13.07-27.647c-2.156-3.705-4.583-7.348-6.614-11.108c-2.538-4.703-3.788-10.286-5.628-15.291   c-1.76-4.788-3.938-9.512-5.014-14.521c-0.931-4.333-2.205-9.091-2.679-13.575c0.249-0.625,0.248-1.348-0.129-1.983   c-0.114-0.193-0.229-0.386-0.344-0.58c-0.944-1.59-3.55-1.759-4.45,0c-2.063,4.031-0.74,8.201-0.397,12.524   c0.447,5.625,1.801,10.752,3.581,16.092c1.859,5.577,3.239,11.272,4.945,16.896c1.481,4.884,4.08,9.163,6.423,13.67   c5.086,9.783,8.333,20.37,13.507,30.173c2.721,5.155,5.572,10.257,9.021,14.967c3.027,4.133,5.531,8.742,9.226,12.292   C145.728,132.889,154.345,124.265,148.656,118.954z"/>
	<path style="fill:#938567;" d="M235.993,93.188c-0.333-5.251-0.641-10.94-2.081-16.027c-1.465-5.174-4.744-9.511-7.39-14.095   c-5.789-10.03-14.231-18.852-22.66-26.807c-4.231-3.993-9.309-6.954-13.643-10.799c-4.782-4.244-9.129-9.096-13.689-13.586   c-2.678-2.636-10.704-13.483-15.043-8.025c-1.768,2.223-0.644,5.167,2.217,5.462c0.395,0.385,0.977,0.876,1.098,1.001   c0.903,0.937,1.734,1.922,2.575,2.914c2.819,3.328,5.725,6.604,8.652,9.837c6.965,7.693,14.953,14.013,22.246,21.328   c6.628,6.647,14.238,13.902,18.801,22.121c2.255,4.061,5.199,7.901,6.75,12.314c1.548,4.4,1.739,9.735,2.006,14.363   C226.208,99.694,236.407,99.72,235.993,93.188z"/>
	<path style="fill:#938567;" d="M155.236,142.834c-3.68-5.113-9.408-3.33-14.332-1.373c-4.997,1.987-10.754-2.019-15.775-1.106   c-0.193,0.025-0.387,0.062-0.627,0.126c-1.408,0.376-1.646,2.016-0.8,3.028c2.95,3.53,9.698,6.457,14.206,6.959   c2.95,0.329,4.64-0.649,7.311-1.626c3.057-1.117,6.086,0.009,8.913-1.795C155.434,146.216,156.241,144.229,155.236,142.834z"/>
	<path style="fill:#938567;" d="M156.483,159.489c-2.179-3.083-7.711-3.672-11.035-4.871c-1.95-0.704-3.987-1.152-5.928-1.867   c-1.776-0.654-3.211-1.826-4.924-2.58c-2.543-1.119-5.017-1.051-7.04,0.94c-2.222,2.188,0.681,6.168,3.393,4.398   c-0.124,0.081,7.289,4.722,7.824,4.967c1.903,0.872,3.734,1.837,5.602,2.781c1.456,0.735,3.973,1.298,5.217,2.293   c1.699,1.36,3.609,1.752,5.595,0.722C157.736,164.951,158.035,161.686,156.483,159.489z"/>
	<path style="fill:#938567;" d="M148.539,172.369c-3.655-1.741-6.347-2.914-10.63-3.07c-5.045-0.183-10.06,0.042-15.097-0.526   c-3.169-0.357-19.529-3.628-17.523,4.247c0.569,2.235,2.675,2.529,4.667,2.746c1.647,0.179,3.285,0.176,4.935,0.255   c2.564,0.122,4.816,0.982,7.349,1.273c8.529,0.98,18.062,2.181,26.298-1.398C149.91,175.299,149.839,172.989,148.539,172.369z"/>
	<path style="fill:#938567;" d="M131.954,185.013c-3.658-1.718-11.709-1.013-14.587,2.207c-1.029,1.151-1.467,2.483-1.534,3.88   c-1.264-0.239-2.53-0.463-3.77-0.725c-5.65-1.195-10.611-2.206-16.217-1.313c-1.334-0.333-2.905,0.179-3.121,1.739   c-0.018,0.128-0.035,0.257-0.053,0.386c-0.163,1.176,0.095,2.493,1.262,3.101c4.039,2.104,8.641,2.398,12.97,3.645   c1.931,0.556,3.824,1.063,5.79,1.493c1.712,0.375,5.891,1.124,7.238,2.346c3.905,3.54,9.78-0.889,7.284-5.621   c-0.543-1.03-1.042-2.021-1.503-3.084c-0.146-0.35-0.292-0.7-0.437-1.049c-0.696-1.183-0.675-1.441,0.063-0.774   c0.003-0.001,3.118-0.157,3.541-0.274c1.099-0.304,2.046-0.678,3.074-1.188C133.727,188.899,133.788,185.874,131.954,185.013z"/>
	<path style="fill:#938567;" d="M155.003,194.625c-3.276-1.51-6.198-0.633-9.669-0.896c-1.812-0.138-3.413-0.646-5.101-1.292   c-1.73-0.662-4.188-0.911-5.759-1.723c-2.54-1.313-5.771,2.243-3.248,4.209c2.86,2.229,6.093,4.616,9.448,6.009   c3.516,1.46,7.197,1.209,10.829,1.994C156.24,203.95,159.928,196.895,155.003,194.625z"/>
	<path style="fill:#938567;" d="M138.279,203.227c0.006-0.018,0.011-0.034,0.017-0.051   C138.372,202.63,138.365,202.653,138.279,203.227z"/>
	<path style="fill:#938567;" d="M138.261,202.059c-0.247-1.142-1.239-1.914-2.319-2.199c-1.301-0.342-2.508,0.26-3.639,0.824   c-0.179,0.09-0.37,0.173-0.448,0.212c-0.389,0.105-0.781,0.183-1.176,0.28c-1.345,0.33-2.353,0.995-3.401,1.881   c-1.49,1.257-1.41,3.719-0.307,5.147c1.188,1.537,3.345,1.991,5.057,1.01c0.224-0.119,0.319-0.174,0.309-0.177   c0.236-0.1,0.473-0.199,0.708-0.299c0.349-0.166,0.665-0.37,0.982-0.589c0.756-0.521,1.489-1.065,2.098-1.754   c0.473-0.535,1.01-1.038,1.452-1.59c0.393-0.491,0.504-0.998,0.699-1.566C138.363,202.844,138.367,202.452,138.261,202.059z"/>
	<path style="fill:#938567;" d="M138.261,203.345c0.007-0.044,0.012-0.079,0.018-0.118c-0.001,0.003-0.002,0.006-0.003,0.01   C138.268,203.273,138.271,203.309,138.261,203.345z"/>
	<path style="fill:#938567;" d="M165.889,228.836c-7.514-0.999-15.019-0.799-22.531-0.719c2.768-1.512,5.052-3.815,8.45-4.632   c5.799-1.395,11.43-1.825,16.814-4.642c3.854-2.016,2.083-8.353-2.221-8.199c-5.857,0.209-11.625,1.556-17.335,2.894   c-2.682,0.628-5.16,1.664-7.278,3.444c-0.833,0.7-1.64,2.103-2.595,2.598c-1.629,0.844-2.947,0.279-4.603,0.174   c-6.094-0.386-12.233-0.397-18.357-0.82c-3.064-0.212-8.42-1.571-11.012,0.467c-0.393,0.309-0.364,0.857-0.156,1.268   c-0.096,0.752,0.497,1.574,1.109,1.931c4.963,2.891,10.21,4.145,15.824,5.085c5.211,0.873,10.808,1.747,16.073,1.83   c0.349,0.005,0.685-0.009,1.012-0.037c0.023,0.374,0.203,0.742,0.58,0.974c7.753,4.773,16.065,6.034,24.992,7.5   C171.265,239.035,172.602,229.728,165.889,228.836z"/>
	<path style="fill:#938567;" d="M194.146,238.99c-6.807,2.916-14.562,1.775-21.713,2.313c-5.991,0.45-11.99,0.871-17.87,2.084   c0.044-0.036,0.092-0.075,0.136-0.11c2.727-2.203-0.754-6.292-3.636-4.712c-1.765,0.968-3.526,2.001-5.259,3.019   c-1.329,0.781-2.241,2.108-3.506,2.903c-1.132,0.711-2.608,0.649-3.849,1.053c-1.879,0.611-3.441,1.673-4.422,3.401   c-1.476,2.602,0.408,5.716,3.334,5.81c3.112,0.1,7.183-1.401,9.611-3.326c1.384-1.097,2.062-2.483,3.113-3.836   c0.034-0.043,0.077-0.084,0.112-0.127c0.17,1.062,0.848,2,2.096,2.219c7.878,1.381,15.862,0.368,23.788,0.602   c7.689,0.227,15.876,0.495,22.993-2.865C204.822,244.704,199.798,236.568,194.146,238.99z"/>
	<path style="fill:#938567;" d="M236.344,173.167c-2.068-3.348-1.86-8.032-5.85-9.847c-0.623-0.284-1.631-0.121-1.763,0.717   c-1.254,8.008-0.695,16.438,6.979,20.904c1.621,0.943,4.163,0.476,5.035-1.32C243.123,178.732,238.576,176.779,236.344,173.167z"/>
	<path style="fill:#938567;" d="M221.909,175.172c-1.355-1.425-2.465-2.358-3.177-4.272c-0.83-2.231-0.893-4.714-1.163-7.056   c-0.438-3.78-6.147-4.013-6.08,0c0.067,4.049-0.203,8.45,1.165,12.325c1.206,3.418,4.5,7.775,8.696,6.288   C225.117,181.122,224.107,177.482,221.909,175.172z"/>
	<path style="fill:#938567;" d="M207.633,165.773c-2.18-3.042-2.512-7.037-2.232-10.632c0.32-4.113-5.842-3.946-6.32,0   c-0.56,4.617-0.728,12.614,4.064,15.12C205.812,171.654,209.679,168.627,207.633,165.773z"/>
	<path style="fill:#938567;" d="M180.126,159.976c-3.783-1.001-7.827-0.412-11.471-1.698c-4.154-1.466-6.63-4.538-9.484-7.684   c-1.179-1.299-3.098,0.629-1.924,1.923c3.275,3.61,5.616,8.434,9.42,11.491c3.581,2.879,9.093,3.568,13.459,2.679   C183.562,165.988,183.32,160.822,180.126,159.976z"/>
	<path style="fill:#938567;" d="M190.952,183.258c-6.707-2.66-13.99-2.197-21.023-3.468c-4.548-0.822-6.559,6.01-1.936,7.02   c7.235,1.581,14.569,3.329,21.96,3.834C194.512,190.956,194.595,184.703,190.952,183.258z"/>
	<path style="fill:#938567;" d="M244.737,130.66c-3.307-0.073-5.153,3.702-6.684,6.096c-1.878,2.938-5.249,5.624-5.26,9.381   c-0.005,1.871,2.068,3.853,4.022,3.063c2.02-0.816,2.484-1.688,3.333-3.588c0.745-1.669,1.864-3.154,2.715-4.774   c1.331-2.537,3.074-5.869,3.314-8.738C246.243,131.312,245.463,130.676,244.737,130.66z"/>
	<path style="fill:#938567;" d="M262.655,138.179c-1.552-0.929-3.17-0.21-4.159,1.09c-1.507,1.98-3.143,3.914-4.399,6.069   c-1.316,2.257-2.413,5.931,0.552,7.508c1.289,0.686,2.661,0.283,3.716-0.618c1.164-0.994,1.452-2.214,1.95-3.593   c0.813-2.248,2.21-4.258,3.432-6.296C264.596,140.92,264.053,139.015,262.655,138.179z"/>
	<path style="fill:#938567;" d="M280.955,149.427c-2.17,1.424-4.527,3.079-5.99,5.271c-0.459,0.687-0.802,1.578-1.053,2.14   c-0.311,0.696-0.529,1.369-0.554,2.137c-0.005,0.153,0.115,0.866,0.204,1.377v-0.164c0.167,0.921,0.739,1.661,1.722,2.076   c2.009,0.849,4.094-0.394,4.924-2.274c0.498-1.128,0.443-2.421,0.649-3.604c0.316-1.822,1.054-3.551,1.849-5.208   C283.217,150.113,282.112,148.667,280.955,149.427z"/>
	<path style="fill:#938567;" d="M273.562,160.351v0.06C273.715,161.2,273.655,160.886,273.562,160.351z"/>
	<path style="fill:#938567;" d="M299.92,158.85c-1.538-0.183-2.785,0.704-3.292,2.149c0.138-0.395,0.032-0.153-0.07,0.063   c-0.067,0.069-0.265,0.327-0.329,0.401c-0.048,0.055-0.074,0.089-0.099,0.121c-0.03,0.018-0.059,0.033-0.11,0.067   c-0.29,0.19-0.578,0.379-0.876,0.556c-1.673,0.99-3.271,1.909-3.871,3.909c-0.651,2.169,1.17,4.79,3.531,4.635   c2.338-0.153,3.994-1.706,5.394-3.446c1.317-1.638,2.253-3.361,2.323-5.51C302.569,160.319,301.344,159.019,299.92,158.85z"/>
	<path style="fill:#938567;" d="M282.176,96.966c-2.146,5.318-8.396,19.979-0.189,23.112c1.173,0.448,2.687-0.502,2.952-1.676   c0.286-1.267,0.84-2.382,0.853-3.721c0.014-1.528-0.44-3.029-0.412-4.573c0.073-3.911,1.577-7.82,2.813-11.482   C289.502,94.748,283.642,93.334,282.176,96.966z"/>
	<path style="fill:#938567;" d="M266.971,94.449c-2.036,5.517-2.775,10.635-1.189,16.326c0.841,3.018,4.776,2.074,5.107-0.691   c0.562-4.691,0.571-9.476,1.79-14.061C273.672,92.285,268.272,90.924,266.971,94.449z"/>
	<path style="fill:#938567;" d="M305.855,120.412c-1.151,6.068-3.391,13.805,0.43,19.265c1.626,2.323,5.107,1.463,5.292-1.433   c0.359-5.623,0.55-11.289,1.192-16.896C313.218,117.43,306.592,116.525,305.855,120.412z"/>
	<path style="fill:#938567;" d="M330.298,191.439c-1.003,2.101-2.754,3.505-3.985,5.463c-1.479,2.351-2.308,4.96-3.171,7.581   c-0.92,2.792-3.899,9.09-0.356,11.271c3.961,2.439,6.449-3.309,7.231-6.143c0.737-2.671,1.125-5.615,1.548-8.357   c0.41-2.655-0.486-6.266,0.668-8.684C332.85,191.275,330.919,190.137,330.298,191.439z"/>
	<path style="fill:#938567;" d="M353.269,185.766c-4.21,6.151-10.275,11.741-12.029,19.269c-0.864,3.706,3.499,6.227,6.294,3.664   c2.542-2.331,3.438-6.878,4.581-10.044c0.579-1.601,1.15-3.145,1.376-4.839c0.354-2.652-0.144-4.366,1.663-6.596   C356.241,185.879,354.253,184.328,353.269,185.766z"/>
	<path style="fill:#938567;" d="M368.019,185.736c-0.342-0.689-1.137-0.841-1.814-0.738c-2.359,0.359-4.114,2.258-5.456,4.065   c-1.789,2.41-2.411,5.32-0.669,7.938c1.065,1.602,3.876,2.028,4.836,0c0.502-1.061,1.161-1.958,1.604-3.078   c0.374-0.943,0.638-1.906,0.93-2.876C367.985,189.272,368.918,187.55,368.019,185.736z"/>
	<path style="fill:#938567;" d="M401.405,211.682c-6.055,4.064-11.952,8.261-18.137,12.133c-3.19,1.998-1.172,7.786,2.682,6.361   c3.644-1.348,7.464-2.346,11.009-3.939c3.425-1.539,6.506-3.641,9.574-5.783C411.836,216.752,406.878,208.007,401.405,211.682z"/>
	<path style="fill:#938567;" d="M391.695,200.116c-6.133,0.863-9.245,6.406-13.122,10.524c-0.893,0.948,0.241,2.493,1.406,1.822   c4.566-2.633,10.124-2.595,14.645-5.4C398.524,204.64,395.778,199.541,391.695,200.116z"/>
	<path style="fill:#938567;" d="M366.499,232.952c-2.216,1.036-4.338,2.103-6.064,3.893c-1.823,1.891-2.725,4.237-3.247,6.767   c-0.452,2.191,2.164,3.979,3.877,2.257c1.696-1.705,3.57-3.135,4.862-5.213c1.23-1.98,1.922-4.073,2.334-6.348   C368.456,233.239,367.477,232.495,366.499,232.952z"/>
	<path style="fill:#938567;" d="M370.92,352.463c-1.588-2.868-2.455-6.323-4.772-8.768c-2.652-2.797-6.116-4.536-9.645-5.933   c-3.603-1.427-6.951-2.424-9.902-5.016c-2.633-2.313-4.543-4.928-6.899-7.357c-1.713-1.767-4.995,0.033-4.212,2.452   c0.454,1.402,0.227,3.005,0.656,4.46c0.515,1.745,1.392,3.236,2.373,4.75c2.145,3.311,4.628,6.244,8.006,8.352   c3.645,2.275,7.767,3.926,11.525,6.037c3.216,1.806,6.25,4.048,9.888,4.901C370.186,356.868,372.058,354.517,370.92,352.463z"/>
	<path style="fill:#938567;" d="M408.619,302.554c-3.668-3.049-8.024-4.629-12.231-6.792c-4.108-2.112-7.353-2.314-11.875-1.918   c-4.055,0.355-3.963,5.772,0,6.24c4.196,0.496,7.123,4.523,10.619,6.543c3.797,2.194,7.574,2.773,11.863,2.077   C409.639,308.275,410.641,304.234,408.619,302.554z"/>
	<path style="fill:#938567;" d="M215.553,266.756c-8.955-0.615-17.68,1.71-26.624,1.768c-3.657,0.023-3.658,5.62,0,5.68   c9.159,0.151,19.628,2.266,27.916-2.678C219.122,270.168,218.02,266.925,215.553,266.756z"/>
	<path style="fill:#938567;" d="M233.129,269.407c-2.235-0.689-4.105-0.801-6.436-0.562c-1.841,0.188-3.638,0.258-5.312,1.102   c-1.045,0.527-1.097,2.322,0,2.832c1.811,0.843,3.185,1.916,5.233,2.229c2.386,0.366,4.249,0.083,6.515-0.665   C235.523,273.555,235.597,270.169,233.129,269.407z"/>
	<path style="fill:#938567;" d="M257.228,269.717c-0.327-0.138-0.656-0.24-1.005-0.322c-0.83-0.197-1.643-0.249-2.489-0.227   c-1.804,0.046-3.609,0.142-5.413,0.212c-4.526,0.176-4.537,6.871,0,7.04c3.683,0.137,11.347,1.763,11.384-4.032   C259.713,271.096,258.581,269.737,257.228,269.717z"/>
	<path style="fill:#938567;" d="M170.495,267.715c-3.761-2.053-7.473-0.588-11.397-0.043c-2.335,0.325-3.611,3.306-3.045,5.364   c0.691,2.514,3.021,3.37,5.363,3.045c3.595-0.5,6.801-1.313,9.694-3.591C172.65,271.278,172.062,268.57,170.495,267.715z"/>
</g>
<g>
	<path style="fill:#FFFFFF;" d="M334.971,350.553c-0.494,0-0.495,0.768,0,0.768C335.465,351.321,335.466,350.553,334.971,350.553z"/>
	<path style="fill:#FFFFFF;" d="M382.859,340.918c-1.472-1.375-1.749-3.239-3.089-4.694c-0.657-0.713-1.421-0.89-2.117-0.729   c-0.609-0.397-1.363-0.466-2.054-0.281c-0.585-0.638-1.154-1.285-1.656-1.954c-1.137-1.516-1.902-3.224-2.744-4.898   c-0.28-1.294-0.533-2.594-0.794-3.896c-0.528-2.636-4.696-2.115-4.792,0.462c-0.198-0.153-0.403-0.295-0.617-0.423   c-2.101-1.264-4.302,1.205-3.234,3.234c1.228,2.333,2.706,4.735,4.616,6.569c0.716,0.688,1.737,0.817,2.585,0.501   c0.312,0.515,0.642,1.021,1.01,1.509c1.559,2.072,3.545,3.952,5.36,5.801c0.215,0.22,0.454,0.38,0.702,0.497   c0.245,0.381,0.519,0.748,0.844,1.091c0.808,0.855,1.748,0.943,2.536,0.591c0.178,0.13,0.356,0.26,0.535,0.39   C382.167,346.294,384.828,342.757,382.859,340.918z"/>
	<path style="fill:#FFFFFF;" d="M392.605,347.632c0.069-0.357,0.066-0.724-0.022-1.046c-0.063-0.229-0.163-0.434-0.284-0.617   c-0.369-1.717-1.884-2.305-3.464-2.33c-0.334-0.091-0.687-0.112-1.032-0.035c-0.382,0.086-0.746,0.186-1.118,0.307   c-0.79,0.209-1.238,0.723-1.415,1.319c-2.003,0.455-2.299,3.022-0.652,4.27c2.17,1.644,4.968,3.82,7.857,2.635   C394.91,351.134,394.415,348.293,392.605,347.632z"/>
	<path style="fill:#FFFFFF;" d="M399.412,350.556c-0.131-0.182-0.291-0.346-0.477-0.489l-0.072-0.075   c-0.129-0.136-0.259-0.272-0.387-0.41c-0.301-0.322-0.594-0.65-0.877-0.987c-0.381-0.455-1.158-0.496-1.644-0.212   c-0.092,0.054-0.175,0.135-0.256,0.218c-0.597,0.13-1.125,0.529-1.289,1.223c-0.38,1.605,1.02,2.885,2.244,3.668   c0.412,0.263,0.878,0.333,1.325,0.262c0.483,0.06,0.99-0.044,1.382-0.347C400.326,352.66,400.265,351.317,399.412,350.556z"/>
</g>
<path d="M199.411,185.577c0.746-4.666,0.183-9.959-4.699-11.93c-5.058-2.042-12.865-0.041-17.873,1.454  c-0.254,0.076-0.438,0.228-0.59,0.405c-0.21,0.029-0.417,0.05-0.628,0.081c-3.421,0.496-11.405,0.488-13.701,3.743  c-4.376,6.205,9.715,13.249,13.839,14.353C184.26,195.962,197.532,197.342,199.411,185.577z M191.183,188.985  c-4.764,3.072-15.533,0.77-20.242-2.205c-1.028-0.648-5.155-3.36-5.24-4.292c-0.227-2.479,5.499-2.724,7.166-3.084  c4.82-1.042,9.667-1.662,14.531-2.219c0.109,0.01,0.219,0.013,0.327,0.026c1.809-0.289,3.339,0.285,4.589,1.721  c2.128,0.403,2.932,1.491,2.414,3.264C195.346,185.011,193.385,187.565,191.183,188.985z"/>
<path d="M243.783,265.24c-0.262-2.791-1.894-6.269-4.509-7.545c-3.073-1.5-5.555-0.192-8.173,1.129  c-2.148,0.788-4.337,2.296-6.067,3.086c-2.484,1.135-4.319,2.78-6.52,4.303c-0.045-0.221-0.082-0.438-0.139-0.667  c-1.056-4.3-3.502-7.852-7.244-10.173c-4.36-2.704-7.638-0.386-11.222,1.688c-3.504,1.235-6.909,3.028-10.044,4.571  c-3.55,1.746-7.142,3.544-10.579,5.5c-1.175,0.669-2.772,1.45-3.46,2.703c-4.327,7.887,18.096,7.973,21.662,8.024  c5.739,0.082,15.028,0.389,19.183-3.71c3.783,2.972,11.788,4.409,14.225,4.651C237.72,279.479,244.41,271.919,243.783,265.24z   M204.179,272.875c-4.253,0.054-8.431,0.229-12.666-0.291c-2.815-0.346-5.641-0.527-8.455-0.887c-4.694-0.6-1.7-0.894,1.045-2.439  c3.851-2.168,7.64-4.422,11.6-6.39c1.082-0.537,2.213-1.188,3.368-1.869c2.223-0.642,4.296-1.859,6.556-2.001  c3.587-0.225,6.496,2.871,7.67,5.871C216.005,271.785,209.181,272.812,204.179,272.875z M238.775,266.518  c-0.37,2.29-2.507,5.609-4.684,6.696c-2.488,1.242-6.099,0.149-8.673-0.402c-1.246-0.266-4.717-0.767-5.547-1.884  c-0.852-1.146-0.291-0.396,0.721-1.614c0.652-0.784,1.61-1.545,2.379-2.219C225.879,264.544,240.306,257.044,238.775,266.518z"/>
<path d="M167.503,133.5c-1.444-1.765-3.343-3.17-5.271-4.365c-0.834-0.518-1.591,0.79-0.767,1.312  c1.794,1.134,3.337,2.44,4.477,4.258c1.071,1.709,1.442,3.763,2.116,5.646c0.528,1.475,2.898,0.839,2.364-0.652  C169.633,137.493,169.013,135.345,167.503,133.5z"/>
<path d="M193.084,159.822c0.878,0.449,2.102-0.301,1.762-1.354c-1.541-4.773-2.92-12.83-9.685-11.932  c-1.083,0.144-1.163,1.813,0,1.759c3.713-0.175,4.789,3.451,5.564,6.386C191.216,156.543,191.162,158.841,193.084,159.822z"/>
<path d="M199.324,195.493c5.351-3.905,4.955-12.157,2.589-17.529c-0.143-0.324-0.648-0.091-0.56,0.236  c1.494,5.552-0.823,11.01-3.433,15.889C197.476,194.919,198.44,196.138,199.324,195.493z"/>
<path d="M203.009,198.241c1.61-1.678,3.204-3.321,4.124-5.499c0.972-2.299,0.892-4.787,1.05-7.232c0.023-0.364-0.521-0.351-0.56,0  c-0.516,4.676-3.283,7.703-6.197,11.148C200.508,197.743,201.997,199.296,203.009,198.241z"/>
<path d="M179.182,213.287c-0.84-2.869-1.561-5.89-3.199-8.432c-1.778-2.759-4.317-4.009-7.124-5.454  c-0.381-0.196-0.733,0.265-0.452,0.586c2.226,2.54,4.937,3.571,6.243,7c0.863,2.266,1.123,9.234,3.468,10.413  c2.184,1.098,1.912-1.035,1.485-2.676C179.445,214.112,179.265,213.568,179.182,213.287z"/>
<path d="M180.107,202.197c-0.544-0.754-1.806-0.045-1.266,0.74c2.446,3.556,3.327,7.822,4.388,11.945  c0.457,1.773,3.333,0.954,2.724-0.751C184.415,209.821,182.804,205.933,180.107,202.197z"/>
<path d="M211.915,234.16c0.758-4.088-1.276-7.905-4.204-10.71c-2.872-2.753-6.57-3.5-10.367-4.145  c-1.148-0.194-1.661,1.53-0.489,1.773c2.932,0.609,5.875,1.254,8.129,3.376c2.477,2.332,4.32,5.974,4.549,9.383  C209.619,235.115,211.65,235.587,211.915,234.16z"/>
<path d="M211.727,221.184c1.372,2.939,2.993,5.819,3.738,9c0.61,2.606,0.711,5.067,1.913,7.509c0.474,0.964,1.752,0.231,1.607-0.678  c-0.483-3.033-0.809-6.115-1.919-9.003c-1.033-2.683-2.537-5.148-3.89-7.675C212.66,219.372,211.276,220.22,211.727,221.184z"/>
<path d="M154.354,260.46c0.92-0.502,1.714-1.868,2.726-2.051c1.477-0.268,1.09-2.557-0.348-2.565  c-1.272-0.007-2.16,0.703-2.963,1.618c-0.973,1.107-1.805,1.521-3.291,1.705c-1.053,0.13-1.07,1.537,0,1.652  C151.85,260.966,153.073,261.158,154.354,260.46z"/>
<path d="M168.805,275.99c2.163-0.889,3.676-3.129,4.51-5.22c0.93-2.33,2.308-5.328,0.645-7.618  c-4.377-6.029-11.307,0.041-15.911,2.279c-1.892,0.92-4.846,1.464-5.564,3.814c-1.188,3.889,4.806,5.148,7.359,5.772  C162.638,275.701,165.966,277.156,168.805,275.99z M158.553,271.117c-0.777-0.358-1.29-0.799-1.349-1.307  c-0.218-1.882,2.345-1.515,3.389-2.193c2.091-1.356,5.235-4.305,8.128-2.956c2.625,1.225,1.054,4.587-0.521,6.501  C167.026,272.59,161.227,272.348,158.553,271.117z"/>
<path d="M257.041,264.343c-0.903-0.185-1.155,0.042-2.258,0.585c-1.825,0.898-3.739,1.6-5.569,2.495  c-2.041,0.998-5.249,2.525-5.963,4.929c-1.385,4.662,6.887,5.614,9.726,6.238c2.276,0.5,4.821,1.827,7.149,1.513  c3.178-0.429,4.537-3.215,5.542-5.923C267.984,267.942,263.062,262.872,257.041,264.343z M258.353,275.859  c-0.77,0.002-2.097-0.692-2.91-0.872c-1.249-0.276-2.513-0.483-3.764-0.75c-1.042-0.222-3.672-0.006-3.935-1.404  c-0.279-1.486,4.183-3.451,5.336-3.986c2.202-1.022,4.922-1.844,7.181-0.503C263.252,270.121,262.207,275.845,258.353,275.859z"/>
<path d="M260.684,260.782c-0.427,0.077-0.279,0.672,0.096,0.707c2.254,0.211,4.61,1.462,5.979,3.287  c1.15,1.533,1.52,3.556,2.509,5.206c0.137,0.229,0.436,0.447,0.72,0.413l0.458-0.057c0.611-0.075,0.936-0.827,0.398-1.22  C271.151,263.913,265.747,259.878,260.684,260.782z"/>
<path d="M274.756,265.96c0.461,2.051,0.161,4.143,0.476,6.22c0.118,0.781,1.375,0.915,1.705,0.223  c2.647-5.547-0.527-9.786-5.038-12.951c-0.667-0.468-1.269,0.61-0.632,1.082C273.273,262.02,274.209,263.528,274.756,265.96z"/>
<path d="M335.126,261.068c1.224,2.122,4.465,0.69,3.897-1.643c-0.993-4.076-2.655-6.36-5.985-8.827  c-2.107-1.561-4.447-2.72-6.578-4.229c-2.96-2.096-1.851-3.678-2.622-6.509c-0.877-3.222-3.954-4.196-6.811-5.33  c-5.579-2.213-2.832-6.541-5.249-10.628c-1.703-2.88-5.076-3.272-7.897-4.413c-5.107-2.065-2.096-7.284-4.873-11.103  c-2.305-3.17-6.564-3.879-10.179-4.347c-2.641-0.342-5.495-0.256-8.052-1.016c-1.513-0.45-2.504-1.203-3.354-2.095  c1.358-1.005,2.198-2.554,2.575-4.473c0.495-2.521,0.636-4.071-0.366-5.557c-0.36-1.899-1.848-3.993-2.643-5.282  c-2.178-3.53-5.753-6.056-8.809-8.794c-0.167-0.148-0.344-0.297-0.527-0.443c-0.777-6.559-5.538-12.369-10.924-15.87  c-4.391-2.854-7.083,0.956-7.765,5.211c-0.163,1.015-0.326,2.113-0.472,3.255c-1.266-1.631-3.191-3.028-4.484-4.058  c-3.475-2.768-7.2-4.915-11.303-6.556c-5.291-2.115-6.973,0.542-7.417,4.354c-2.453-2.189-6.616-3.538-8.977-4.358  c-2.188-0.76-3.823-0.486-5.05,0.392c-1.279-3.697-3.728-10.247-7.531-10.899c-2.489-0.427-4.046,3.111-4.924,6.257  c-0.496-1.525-1.064-3.019-1.859-4.45c-1.441-2.594-3.385-4.238-5.611-6.144c-0.674-0.577-1.587,0.313-0.98,0.98  c1.863,2.046,3.578,4.071,4.724,6.615c1.003,2.226,1.81,4.553,2.736,6.813c0.033,0.082,0.087,0.137,0.132,0.204  c-0.001,0.006-0.002,0.015-0.003,0.021c-0.612,4.197-1.603,10.316,1.77,13.569c1.983,1.914,5.942,3.524,8.712,2.36  c0.81,3.448,2.581,6.516,5.676,8.868c2.061,1.566,6.167,3.22,9.295,2.758c-3.151,7.391-4.689,14.142-1.687,22.067  c2.542,6.71,7.515,11.881,13.446,15.733c1.168,0.758,2.374-0.919,1.454-1.884c-4.212-4.41-8.711-8.837-11.358-14.414  c-2.414-5.086-2.066-9.658-1.592-14.459c1.321,3.97,3.813,8.268,4.777,10.051c4.766,8.811,12.762,14.388,22.814,15.497  c6.268,0.692,12.347-1.021,16.926-4.721c-1.114,1.631-2.382,3.155-3.761,4.687c-4.008,4.449-10.561,9.536-16.715,10.151  c-0.896,0.09-1.296,1.568-0.234,1.728c6.582,0.989,13.854-3.548,18.252-8.152c2.73-2.857,5.372-6.147,6.913-9.808  c0.758-1.801,1.408-3.831,1.552-5.792c0.011-0.154-0.005-0.396-0.036-0.69c0.185-0.425,0.372-0.849,0.532-1.293  c0.023-0.066,0.023-0.129,0.041-0.195c0.571,0.899,1.436,1.704,2.998,2.528c0.039,0.02,0.079,0.035,0.118,0.055  c-0.204,0.012-0.389,0.263-0.279,0.486c2.294,4.685-4.145,12.493-7.061,15.371c-4.633,4.571-9.596,7.005-15.646,9.18  c-1.093,0.393-0.669,1.993,0.482,1.748c7.813-1.665,14.919-4.922,19.672-11.62c2.422-3.414,6.397-11.13,3.063-15.056  c4.276,2.052,9.59,1.014,13.72,3.175c4.65,2.434,2.169,8.574,5.725,12.077c2.796,2.753,7.985,2.359,9.353,6.038  c1.132,3.047,0.186,6.199,2.569,8.856c1.183,1.318,2.793,2,4.395,2.693c1.169,0.506,2.497,0.864,3.62,1.497  c-0.022,0.192-0.052,0.422-0.093,0.714c-0.538,3.76,1.28,6.365,4.197,8.563C326.582,254.301,331.78,255.266,335.126,261.068z   M207.918,167.779c-0.023,0.474-0.03,0.942-0.029,1.409c-0.18,0.04-0.362,0.091-0.547,0.174c-7.758,3.435-6.886-9.758-5.584-13.545  c0.156-0.455,1.308-4.394,1.61-4.456c0.617-0.125,3.146,3.62,3.186,3.672c1.228,1.633,2.264,3.264,3.783,4.553  C208.687,161.53,208.064,164.843,207.918,167.779z M226.192,178.466c-0.145,0.265-0.319,0.501-0.52,0.711  c-2.202,2.312-7.465,1.387-9.421-0.509c-2.876-2.787-3.992-7.656-3.732-11.53c0.062-0.928,0.235-4.447,1.569-4.96  c0.75-0.289,4.056,1.485,4.806,1.781c1.291,0.51,2.549,1.138,3.872,1.565c0.688,0.223,1.597,0.287,2.387,0.513  c0.008,0.543,0.023,1.089,0.046,1.63c0.101,2.344,0.17,4.668,0.661,6.965C226.137,175.925,226.893,177.184,226.192,178.466z   M252.972,171.94c0.068-0.814-0.044-3.266,0.226-4.947c0.124-0.77,0.327-1.378,0.665-1.593c1.87-1.193,5.254,2.701,6.383,3.834  c1.592,1.597,2.741,3.618,3.967,5.576c-0.847-0.034-1.668,0.27-2.359,1.12c-1.624,1.996-1.037,6.845-0.808,9.839  c-0.397,0.109-0.811,0.231-1.324,0.314c-3.742,0.604-5.765-1.478-6.529-5.225C252.595,177.932,252.726,174.898,252.972,171.94z   M230.115,164.571c0.02-2.954,0.023-2.038,2.596-0.936c2.715,1.163,5.274,2.792,7.761,4.37c1.685,1.069,5.025,4.226,7.661,4.423  c-0.197,2.633-0.205,5.37,0.171,7.938c-0.136,0.069-0.274,0.138-0.394,0.233c-4.456,3.543-9.884,4.467-14.645,0.182  C229.42,177.321,230.082,169.545,230.115,164.571z M264.818,209.349c-3.323,3.101-9.089,4.431-13.565,4.218  c-8.672-0.413-15.082-5.599-19.221-12.872c-1.03-1.81-4.487-7.544-4.268-9.925c0.023-0.254-0.017-0.41-0.068-0.504  c0.176,0.067,0.53,0.137,1.196,0.134c1.888-0.01,3.767,0.096,5.657-0.051c-3.355,2.796-1.597,8.657,1.177,12.168  c4.128,5.224,10.116,7.029,16.597,7.652c4.033,0.388,9.285,0.147,13.415-1.795C265.449,208.712,265.148,209.041,264.818,209.349z   M241.442,202.036c-1.729-1.358-3.578-2.859-4.151-5.119c-0.958-3.778,1.243-4.317,4.304-4.932c2.923-0.588,5.551-0.551,8.475-0.579  c1.292-0.012,3.179-0.013,4.506-0.618c0.126,0.076,0.256,0.138,0.383,0.207c-2.039,1.918-2.672,5.7-1.351,8.003  c2.474,4.314,8.013,2.017,9.917-1.603c0.093,0.113,0.176,0.23,0.277,0.34c0.984,1.072,2.274,2.056,3.699,2.828  C261.286,207.371,248.467,207.555,241.442,202.036z M275.655,195.175c-1.688,3.384-5.028,1.957-7.627,0.287  c-2.529-1.625-3.248-4.599-3.36-7.733c0.095-0.287,0.083-0.58-0.016-0.861c-0.005-1.5-0.664-5.517,1.439-5.927  c1.299-0.253,3.537,2.631,4.643,3.395c2.015,1.392,3.776,3.499,5.419,5.62c-0.015,0.132-0.012,0.267,0.036,0.4  C276.735,191.866,276.351,193.779,275.655,195.175z"/>
<path d="M225.296,224.973c1.143,0.92,2.517-0.458,1.602-1.602c-7.168-8.965-11.619-16.327-11.821-28.196  c-0.02-1.184-1.811-1.185-1.839,0C212.946,207.403,215.431,217.028,225.296,224.973z"/>
<path d="M155.026,161.838c-0.41,0.046-0.481,0.552-0.095,0.707c2.926,1.175,2.652,5.622,2.364,8.054  c-0.281,2.368-0.349,6.063-1.299,8.225c-0.362,0.824,0.619,1.793,1.34,1.034C160.021,177.025,162.159,161.028,155.026,161.838z"/>
<path d="M235.626,150.491c2.76,1.801,6.533,2.499,9.802,2.307c2.294-0.134,4.05-0.784,5.376-1.81  c1.764,2.388,4.906,4.631,6.717,5.419c2.483,1.082,5.613,0.988,8.014-0.314c2.836-1.54,3.215-4.242,3.782-7.138  c0.652-3.329,1.307-6.528,0.019-9.797c-0.707-1.792-2.016-5.323-4.396-5.389c-2.705-0.075-5.517,3.771-7.14,5.468  c-1.277,1.334-2.599,2.439-3.624,3.732c0.011-0.302,0.02-0.605,0.018-0.915c-0.036-6.018-0.056-12.692-5.223-16.744  c-0.675-0.53-1.319-0.621-2.1-0.271c-2.8,1.256-4.55,3.191-6.442,5.564c-0.021,0.026-0.043,0.057-0.064,0.083  c-3.841,2.567-13.323,7.721-10.926,13.881C230.309,146.805,233.695,149.232,235.626,150.491z M254.413,146.717  c0.017-0.042,0.014-0.085,0.025-0.127c1.957-1.063,3.839-3.141,5.347-4.487c1.466-1.309,2.95-3.17,4.678-4.143  c0.106,0.201,0.213,0.401,0.319,0.602c0.463,0.926,1.013,1.805,1.267,2.827c0.624,2.509-0.179,9.977-3.074,11.191  c-2.438,1.023-4.831-0.695-6.624-2.108C254.863,149.298,253.653,148.683,254.413,146.717z M234.893,141.109  c2.247-1.045,3.771-3.509,5.377-5.318c2.289-2.578,4.242-5.413,7.206-7.157c2.451,2.505,2.941,5.784,2.974,9.354  c0.014,1.504,0.076,3.13-0.123,4.623c-0.478,3.591-1.811,5.157-5.555,5.06c-3.482-0.089-9.272-2.063-9.86-5.95  C234.879,141.5,234.89,141.307,234.893,141.109z"/>
<path d="M277.473,166.74c4.922,3.758,8.478-0.032,9.877-4.936c1.374-4.816,2.853-12.7-3.258-14.706  c-4.014-1.317-6.947,1.449-9.111,4.494c-1.456,2.049-4.611,5.066-4.795,7.94c-0.021,0.324-0.004,0.646,0.058,0.963  C270.814,163.468,275.326,165.101,277.473,166.74z M278.568,152.626c1.217-1.422,2.857-2.828,4.757-1.65  c1.894,1.174,1.329,4.472,1.032,6.394c-0.262,1.7-0.635,5.328-2.1,6.431c-1.076,0.811-6.197-2.489-6.986-3.548  c-0.258-0.346-0.422-0.697-0.509-1.05C274.177,156.821,277.106,154.334,278.568,152.626z"/>
<path d="M353.917,223.692c2.293,1.682,5.627,1.946,8.326,1.215c2.363-0.64,5.49-2.356,6.964-4.354  c1.582-2.143,0.543-5.16,0.14-7.552c-0.302-1.79-1.169-3.545-1.603-5.326c-0.303-1.247-0.627-2.812-1.429-3.856  c-1.496-1.95-3.474-1.26-5.113,0.093c-3.774,3.116-7.41,8.815-9.525,13.187C350.265,220.016,351.265,221.746,353.917,223.692z   M358.429,213.95c1.252-1.683,3.093-5.694,5.268-7.136c0.918,1.636,1.441,4.398,1.794,5.754c0.366,1.41,0.842,5.188-0.142,6.159  c-3.254,3.213-8.22,2.905-10.596-0.626c0.002-0.141-0.015-0.281-0.047-0.42C355.995,216.539,357.314,215.448,358.429,213.95z"/>
<path d="M424.051,269.877c-1.6-4.751-1.354-7.494-0.679-12.518c0.525-3.908,0.421-7.528-0.284-11.379  c-0.686-3.742-2.718-9.708-6.25-12.656c3.145-5.295,5.424-11.625,7.188-17.166c1.167-3.665,1.582-8.15,1.336-11.952  c-0.111-1.71,0.042-2.925-1.853-3.755c-1.951-0.855-4.241,0.258-5.968,1.21c-3.896,2.146-7.543,4.424-11.576,6.404  c-2.546,1.25-5.029,2.625-7.52,3.983c0.922-3.052,1.485-6.326,1.959-9.275c0.38-2.367,2.02-6.521-0.65-8.206  c-2.445-1.543-6.451,1.386-8.474,2.472c-2.049,1.101-4.137,2.25-6.205,3.446c-0.648,0.219-1.3,0.46-1.947,0.72  c0.074-0.396,0.018-0.822-0.205-1.219c-0.948-1.688-2.73-3.349-4.428-4.237c-0.852-0.446-1.701-0.875-2.531-1.364  c-0.37-0.218-0.724-0.467-1.092-0.684c-0.036-0.021-0.147-0.078-0.285-0.147c-0.005-0.061,0.006-0.116-0.001-0.178  c-0.338-3.024-1.504-6.103-2.508-8.961c-0.682-1.94-2.036-5.121-4.59-4.976c-2.392,0.137-3.596,3.207-4.663,4.907  c-0.869,1.385-2.248,2.963-3.102,4.641c-0.746-4.25-2.431-16.097-7.88-10.031c-0.36-0.794-0.828-1.54-1.362-2.247  c-0.373-0.493-0.748-0.991-1.188-1.425c-0.47-0.464-1.162-0.758-1.599-1.229c-0.004-0.004-0.01-0.006-0.014-0.011  c-0.27-0.344-0.55-0.682-0.853-1.009c-1.579-1.703-3.87-2.954-5.19-4.894c-1.193-1.751-1.475-4.456-1.655-6.499  c-0.373-4.233-0.138-7.626-2.292-11.438c-1.072-1.896-2.778-5.299-4.785-6.395c-4.938-2.696-5.456,5.207-6.397,7.995  c-0.326,0.965-0.629,1.819-0.871,2.616c-0.576-1.933-1.367-3.85-1.911-5.749c-1.413-4.932-3.293-9.709-4.406-14.733  c-1.431-6.456-0.816-17.479-7.056-21.593c-0.617-0.407-1.604-0.413-2.22,0c-3.281,2.2-4.259,6.998-5.571,10.505  c-0.58,1.552-1.254,3.066-1.838,4.583c-0.216-1.797-0.54-3.586-1.318-5.492c-1.983-4.854-3.389-9.789-4.63-14.891  c-1.449-5.953-2.878-16.415-9.551-18.79c-1.037-0.369-2.212,0.254-2.761,1.124c-3.377,5.346-5.392,10.634-6.744,16.813  c-0.071,0.323-0.145,0.644-0.219,0.963c-0.416-2.149-1.118-4.228-1.759-6.321c-0.896-2.926-1.269-6.89-3.041-9.473  c-3.209-4.676-6.569-0.741-8.464,2.812c0.525-0.985-3.223-4.481-3.896-5.015c-1.861-1.474-2.776-1.464-3.769-3.557  c-2.062-4.351-3.842-8.597-6.381-12.744c-2.985-4.873-6.541-9.379-10.318-13.659c-3.902-4.423-7.149-9.338-11.138-13.719  c-4.659-5.117-9.648-9.892-15.025-14.25c-8.389-6.799-16.817-13.022-26.271-18.26c-5.632-3.121-11.373-5.965-16.977-9.14  c-3.091-1.751-7.514-4.494-11.149-3.69c-0.682,0.151-1.206,0.752-1.398,1.398c-0.712,2.391,1.395,5.681,2.552,7.678  c2.36,4.073,5.735,7.467,8.747,11.043c7.515,8.924,16,17.045,24.787,24.729c8.158,7.134,14.418,17.027,20.366,26.092  c2.762,4.209,6.252,8.862,7.698,13.718c1.09,3.663,1.66,9.44,1.293,14.054c-0.777,1.273-1.283,2.681-2.092,4.119  c-2.507,4.453-5.193,4.694-9.865,5.133c-0.402,0.038-0.772,0.171-1.093,0.371c-2.273-0.541-4.487-1.203-6.312-2.091  c-2.719-1.322-4.544-2.851-7.685-3.355c-2.206-0.354-4.381-0.304-6.512,0.083c-0.078-0.047-0.145-0.104-0.237-0.138  c-1.832-0.69-3.776-2.804-5.333-3.911c-2.413-1.716-4.958-3.214-7.47-4.778c-5.407-3.365-10.695-6.901-16.161-10.174  c-11.127-6.665-21.168-15.496-30.498-24.497c-8.855-8.543-17.512-19.864-22.018-31.385c-2.412-6.166-5.484-11.951-8.739-17.737  c-1.387-2.466-4.104-5.24-4.953-7.854c-0.66-2.034-3.679-1.681-3.743,0.508c-0.381,13.054,1.218,25.547,3.801,38.378  c2.687,13.348,8.445,26.378,13.944,38.717c3.045,6.833,7.526,12.915,10.285,19.874c2.172,5.477,4.846,10.708,7.49,15.96  c1.423,2.827,5.503,11.016,10.026,15.153c-1.563,0.149-3.118,0.313-4.628,0.486c-4.06,0.464-8.223,1.469-12.239,2.281  c-2.028,0.41-4.72,1.085-5.616,3.246c-1.827,4.408,6.672,8.06,9.396,9.486c0.712,0.373,1.589,0.893,2.543,1.417  c-1.603,0.483-3.037,1.209-3.932,2.354c-0.599,0.765-1.059,2.007-0.376,2.911c2.037,2.691,5.357,5.178,9.041,6.857  c-6.079,0.068-12.109,0.619-18.039,2.155c-5.449,1.412-10.982,3.198-16.251,5.214c-2.931,1.122-6.261,2.368-6.668,5.842  c-0.121,1.032,0.895,2.359,1.926,2.529c7.863,1.301,15.812,1.375,23.721,2.055c-2.835,0.678-5.641,1.494-8.356,2.181  c-4.476,1.133-8.931,2.785-13.101,4.763c-2.65,1.257-7.709,3.224-8.41,6.481c-0.245,1.137,0.169,2.247,1.167,2.869  c3.986,2.485,9.336,2.731,13.816,3.963c5.415,1.488,10.515,3.685,15.825,5.454c1.569,0.523,3.577,1.049,5.698,1.368  c-0.053,0.254-0.11,0.508-0.171,0.763c-0.045,0.089-0.098,0.174-0.142,0.264c-0.125,0.259-0.242,0.521-0.354,0.787  c-0.055,0.131-0.355,0.608-0.196,0.456c-0.311,0.297-0.49,0.64-0.578,0.995c-2.472,0.638-4.92,1.334-7.25,2.146  c-2.531,0.882-4.961,2-7.44,3.011c-2.586,1.055-6.696,1.68-8.876,3.684c-6.758,6.215,7.257,9.151,10.853,9.647  c2.585,0.356,5.197,0.659,7.808,0.987c-2.147,3.538-3.619,7.994-4.845,10.907c-2.979,7.074-4.509,16.209-4.796,23.888  c-0.332,8.834-1.403,17.793-0.362,26.611c1.117,9.464,2.659,17.979,1.532,27.541c-1.113,9.45-3.171,18.773-4.148,28.237  c-0.92,8.913-0.217,17.663,1.545,26.435c0.938,4.67,2.404,9.173,2.501,13.981c0.098,4.87-0.903,9.629-1.753,14.4  c-1.321,7.415-1.879,14.018-0.521,21.492c0.608,3.344,1.472,6.495,1.98,9.728c-0.662,6.514-2.492,12.216-1.756,18.767  c-0.092,0.833-0.158,1.668-0.153,2.514c0.048,8.088,3.797,16.403,9.836,21.701c0.189,0.167,0.384,0.299,0.58,0.411  c6.387,9.798,13.25,18.949,23.512,25.233c11.898,7.287,26.715,10.353,40.491,11.438c3.301,0.26,6.531,0.837,9.857,0.829  c3.997-0.011,7.92-0.794,11.917-0.887c8.617-0.2,17.168,0.108,25.76-0.56c16.392-1.274,32.886-4.949,49.067-7.807  c6.341-1.12,12.33-3.368,17.973-6.478c6.445-3.551,9.932-10.301,13.436-16.543c7.569-13.485-4.411-25.146-7.657-37.89  c-1.947-7.644-5.09-14.859-9.993-21.094c-6.098-7.756-9.811-15.566-9.763-25.562c0.08-16.763,5.933-33.924-0.731-49.837  c2.559-7.754,4.452-15.792,7.056-23.55c2.023,0.595,4.052,1.228,6.245,1.514c9.716,1.267,18.44,5.535,26.42,11.234  c3.318,2.371,6.629,5.206,10.457,6.751c1.704,0.688,4.106,1.241,5.987,1.222c0.28-0.003,0.785-0.133,1.356-0.286  c3.197,2.187,6.822,3.674,9.778,6.379c3.47,3.175,5.823,7.605,9.529,10.47c6.892,5.325,18.198,5.539,26.513,5.657  c5.206,0.075,10.052-0.082,14.984-1.805c2.673-0.934,6.317-0.992,8.5-2.876c0.658-0.568,0.973-1.747,0.679-2.565  c-0.052-0.145-0.129-0.271-0.192-0.408c0.099-0.297,0.161-0.625,0.151-1.002c-0.104-4.063-1.787-6.734-4.38-9.39  c0.47-0.685,0.921-1.386,1.417-2.027c1.292-1.669,2.507-3.518,1.519-5.655c-1.013-2.188-2.906-2.532-4.97-2.383  c0.718-1.654,0.771-3.342-0.932-4.749c-2.335-1.929-5.284-1.591-8.089-0.782c0.994-1.718,2.298-3.523,2.567-4.84  c0.44-2.153-1.72-4.001-3.742-2.877c-1.348,0.75-2.855,1.336-4.307,1.994c0.146-0.869,0.352-1.702,0.767-2.587  c0.681-1.452,1.294-2.942,1.31-4.569c0.018-1.776-2.163-3.236-3.735-2.144c-1.538,1.068-3.28,1.743-4.792,2.886  c-0.334-0.409-0.7-0.785-1.097-1.1c-0.18-0.142-0.372-0.256-0.561-0.375c-1.978-3.354,0.628-6.529,3.252-8.817  c0.973-0.849,2.563-2.812,3.995-4.073c0.834,0.444,1.641,0.934,2.443,1.438c-0.169,1.701,0.035,3.59,0.42,5.083  c0.303,1.175,1.537,1.765,2.667,1.514c1.029-0.229,2.204-0.6,3.104-1.194c0.094,1.64,0.767,3.851,1.797,4.73  c1.144,0.976,2.636,1.103,3.968,0.459c0.557-0.269,0.998-0.689,1.428-1.118c0.221,0.78,0.573,1.578,1.169,2.544  c0.581,0.941,1.735,1.446,2.818,1.146c1.85-0.512,3.256-1.685,4.965-2.518c1.777,0.483,3.494,0.536,4.878-0.362  c0.76-0.493,1.543-1.43,2.211-2.566c5.222-4.888,5.947-14.693,8.58-20.937C428.462,284.402,426.855,278.203,424.051,269.877z   M407.292,212.229c2.695-1.232,5.599-2.243,8.18-3.71c1.209-0.687,5.404-3.674,5.279-4.485c0.46,1.142-0.702,8.392-0.842,9  c-0.648,2.834-2.079,5.396-3.161,8.072c-2.932,7.244-13.572,29.655-24.156,20.744c-3.481-2.931-8.621-7.191-10.072-11.589  c-1.439-4.361,1.709-7.2,5.414-9.387c1.986-0.67,3.921-1.638,5.816-2.403C398.363,216.605,402.768,214.297,407.292,212.229z   M387.911,203.127c2.581-1.34,6.11-4.056,9.037-4.521c-0.122,0.514-0.248,1.027-0.397,1.534c-0.35,1.553-0.533,3.137-0.932,4.682  c-0.848,3.282-2.32,6.43-2.557,9.817c-0.078,0.004-0.154,0.002-0.235,0.019c-2.484,0.489-5.754,1.458-8.692,2.945  c-0.266-0.324-0.613-0.597-1.076-0.745c-4.141-1.319-5.811-6.052-3.794-9.535C382.222,206.097,385.077,204.599,387.911,203.127z   M361.037,191.904c0.578-2.748,3.689-4.624,5.217-6.81c0.315-0.481,0.642-0.954,0.98-1.419c0.236-0.665,0.445-0.696,0.626-0.092  c0.483,0.346,0.729,1.676,0.921,2.244c0.572,1.697,1.098,3.439,1.554,5.171c0.227,0.86,0.67,1.963,0.595,2.873  c-0.033,0.054-0.073,0.1-0.101,0.16c-0.13,0.281-0.212,0.544-0.271,0.8c-0.544,0.612-2.189,0.884-2.956,1.056  c-2.76,0.622-6.833,0.062-6.665-3.257C360.951,192.402,360.983,192.16,361.037,191.904z M353.163,184.973  c0.263-0.43,0.592-0.878,0.893-1.339c0.208,5.885,5.759,12.914,0.29,18.025c-3.136,2.93-10.387,5.485-11.532,0.314  c1.993-2.685,5.047-7.973,5.321-8.471C349.723,190.606,351.44,187.791,353.163,184.973z M329.692,152.681  c0.178-0.888,0.575-3.861,1.187-4.699c0.195-0.267,0.266-0.489,0.285-0.659c0.076,0.172,0.201,0.399,0.448,0.731  c2.336,3.138,2.329,7.809,2.343,11.45c0.005,1.4,0.057,2.761,0.202,4.073c-0.008-0.007-0.014-0.013-0.022-0.02  C330.31,160.115,328.567,158.28,329.692,152.681z M308.519,122.943c0.4-1.162,0.864-2.296,1.392-3.405  c0.326-1.87,0.745-2.068,1.257-0.595c1.079,1.034,1.008,5.806,1.209,7.221c0.982,6.891,2.212,13.279,4.588,19.855  c-4.735-2.556-9.276-5.547-10.987-11.009C304.772,131.162,307.137,126.592,308.519,122.943z M282.872,103.802  c0.987-3.54,2.324-6.648,4.192-9.652c2.554,3.018,3.465,9.224,4.205,12.373c1,4.263,2.049,8.552,3.488,12.692  c0.887,2.553,1.787,5.113,2.688,7.667c-2.073-0.911-3.638-1.768-5.636-3.263c-3.261-2.441-8.458-4.765-10.081-8.555  C280.296,111.725,281.887,107.334,282.872,103.802z M265.546,104.315c0.262-1.824,1.159-3.632,1.822-5.333  c0.477-1.225,1.189-3.884,1.762-3.426c0.691,0.552,1.078,3.912,1.364,4.778c0.975,2.955,2.235,5.82,3.037,8.833  c0.342,1.285,0.575,2.62,1.196,3.664c-2.094,0.825-4.198,1.513-6.165-0.301C266.516,110.643,265.147,107.093,265.546,104.315z   M216.827,64.851c-4.44-6.644-8.316-14.417-13.906-20.139c-6.442-6.594-13.658-12.651-20.512-18.821  c-3.327-2.995-6.256-6.325-9.398-9.506c-3.274-3.315-6.803-6.143-9.287-10.161c-0.313-0.506-0.58-1.038-0.846-1.569  c0.913,0.498,2.1,0.651,3.043,1.012c4.435,1.702,8.419,4.735,12.683,6.845c14.839,7.342,27.705,17.197,39.235,29.109  c6.797,7.022,12.209,14.898,18.504,22.286c5.73,6.725,11.271,14.644,13.894,23.194c-2.813,0.814-5.345,2.574-8.19,4.093  c-2.507,1.338-3.451,2.011-5.77,2.353c-1.248,0.184-2.543,0.142-3.803,0.341c-1.652,0.26-3.33,0.654-4.869,1.335  c0.279-3.585-0.178-7.422-0.631-10.223C225.826,77.896,220.748,70.718,216.827,64.851z M133.672,117.581  c-2.722-4.261-4.609-9.156-6.771-13.711c-5.062-10.663-10.864-20.873-16.005-31.481c-1.394-2.875-3.282-5.324-4.46-8.345  c-1.038-2.663-1.906-5.39-2.946-8.052c-2.25-5.756-4.191-11.276-5.686-17.265c-1.095-4.387-2.018-8.82-2.683-13.293  c-0.573-3.851-1.81-7.556-0.002-11.276c2.211,1.637,3.35,6.181,4.375,8.643c1.549,3.722,2.796,7.562,4.354,11.281  c4.722,11.274,13.398,22.469,22.328,30.744c9.452,8.759,19.378,17.36,30.643,23.679c6.13,3.438,12.05,7.251,18.222,10.612  c2.804,1.526,5.693,2.861,8.481,4.403c0.589,0.326,1.156,0.646,1.724,0.934c-1.391,0.585-2.706,1.34-4.095,1.925  c-2.349,0.989-4.21,0.788-6.563,1.294c-2.896,0.624-5.138,2.347-7.457,4.095c-3.515,2.65-7.353,4.109-11.115,6.316  c-2.711,1.59-5.281,3.563-7.261,6.021c-1.534,1.904-2.687,4.509-5.63,4.324C139.06,128.171,135.598,120.596,133.672,117.581z   M122.189,140.077c0.127,0.085-0.825-0.506-1.724-1.082c0.045-0.026,0.084-0.044,0.131-0.074c0.816-0.147,1.633-0.294,2.449-0.441  c5.129-1.047,10.005-2.187,15.205-2.885c2.773-0.373,5.569-0.618,8.354-0.909c0.751,0.227,1.499,0.471,2.237,0.759  c1.657,0.647,3.065,1.176,4.016,2.759c1.035,1.723,1.089,3.696,1.6,5.569c-0.979-0.005-1.937,0.037-2.83,0.19  c-2.514,0.433-3.749,1.403-4.142,2.665c0.171-0.551-9.755,0.082-10.627,0.237c-3.378,0.602-4.676-1.042-7.629-2.641  C126.816,142.919,124.481,141.612,122.189,140.077z M155.731,148.933c2.894,0.261,5.769,0.539,8.674,0.701  c3.654,0.204,7.298,0.706,10.938,0.908c2.561,0.142,6.915,0.342,8.7,2.475c0.845,1.009,1.093,2.413,0.956,3.722  c-0.841,8.022-7.273,9.792-14.178,7.15c-3.297-1.262-6.118-3.306-8.949-5.367c-2.733-1.99-7.486-4.956-8.901-8.242  c-0.791-1.839-1.433-0.941,0.271-1.535C153.912,148.511,155.056,148.871,155.731,148.933z M99.621,171.731  c1.122-0.366,2.081-0.676,2.404-0.789c5.073-1.762,10.085-3.765,15.326-4.992c5.888-1.379,11.953-1.547,17.968-1.822  c2.822-0.129,5.61-0.245,8.433-0.157c0.236,0.007,0.49,0.001,0.752-0.012c1.841,0.283,3.583,0.5,4.961,1.949  c1.835,1.93,1.916,6.329,0.512,8.619c-4.305,7.022-13.911,2.186-19.599,0.661C120.318,172.493,109.912,172.591,99.621,171.731z   M138.117,197.464c-1.636-0.682-6.964-2.142-9.345-4.096c0.281,0.23,5.98-1.478,6.776-1.585c6.543-0.882,13.161-1.173,19.635-2.637  c2.119,0.472,3.829,1.517,4.857,3.887c0.984,2.269,1.088,4.746,1.054,7.19c0.018-1.282-10.155,0.866-11.387,0.868  C145.723,201.099,141.705,198.959,138.117,197.464z M139.444,203.584c-1.214,0.43-2.383,0.904-3.442,1.44  c-2.262,0.39-4.52,0.796-6.764,1.282c-0.822,0.178-1.664,0.367-2.5,0.552c0.14-0.512,0.278-1.024,0.476-1.494  c3.013-0.311,5.678-1.466,7.016-4.134C135.853,202.008,137.618,202.855,139.444,203.584z M113.052,197.142  c-3.506-1.32-7.055-2.529-10.664-3.54c-3.29-0.921-7.328-1.24-10.746-2.388c2.778-1.77,8.235-3.666,9.428-4.145  c3.859-1.547,7.761-2.577,11.739-3.747c4.943-1.454,9.656-2.52,14.539-3.361c2.392,0.638,4.686,1.423,6.965,2.073  c0.048,0.147,0.092,0.293,0.122,0.436c0.358,1.745,1.206,3.642,0.995,5.383c-3.807,0.324-7.52,0.862-11.045,2.673  c-0.905,0.465-1.222,1.58-1.021,2.508c0.567,2.615,3.167,4.421,5.816,5.796c-1.134,0.607-2.297,1.223-3.778,1.26  C121.072,200.2,117.021,198.637,113.052,197.142z M103.306,220.412c0.491-0.184,0.984-0.362,1.474-0.55  c1.829-0.736,3.608-1.568,5.414-2.364c8.625-3.798,18.174-6.106,27.338-8.263c4.642-1.092,9.298-2.158,13.852-3.584  c1.126-0.353,2.264-0.769,3.409-1.197c3.783-0.226,7.68-0.254,11.161,1.587c3.785,2.002,5.114,9.111,3.054,13.16  c-1.373-0.11-2.766-0.052-4.071,0.089c-6.927,0.749-12.831,2.852-19.277,5.165c-2.151,0.771-4.559,1.435-6.893,2.262  c-0.22-0.214-0.481-0.4-0.83-0.506c-5.438-1.647-11.344-2.295-17.095-3.044c-0.236-0.123-0.506-0.167-0.787-0.104  c-1.241-0.165-2.476-0.333-3.692-0.523C112.12,221.879,107.443,221.742,103.306,220.412z M147.461,252.046  c-2.496,0.55-4.973,0.297-7.908,0.169c-4.112-0.18-9.401-0.273-13.87-1.286c0.406-0.182,0.773-0.355,1.003-0.528  c1.674-1.251,3.144-2.812,4.818-4.097c4.109-3.155,9.153-5.971,13.755-8.427c0.475,0.06,0.918,0.12,1.292,0.186  c3.547,0.626,7.106,1.257,10.698,1.495c-1.604,0.629-3.207,1.252-4.816,1.905c-1.997,0.81-4.164,1.502-5.845,2.899  C143.153,247.217,144.434,250.458,147.461,252.046z M153.173,246.916c0.094-0.24,0.306-0.535,0.666-0.895  c0.812-0.813,4.892-1.495,6.087-2.027c5.755-2.563,11.724-4.707,17.555-7.104c2.461-1.012,5.008-1.905,7.39-3.102  c1.428-0.717,2.771-1.598,4.127-2.449c6.989-1.261,13.348-0.475,13.291,6.826c-0.061,7.706-7.882,7.423-13.573,7.743  c-5.962,0.334-11.901,1.479-17.855,1.738c-4.153,0.181-8.29-0.159-12.439-0.12C157.902,247.529,152.496,248.639,153.173,246.916z   M171.788,233.395c-7.717,3.121-15.807,1.541-23.993,0.161c-1.084-0.183-6.536-0.631-9.84-1.452  c2.042-0.911,4.433-1.642,6.062-2.232c3.598-1.304,7.305-3.041,10.957-4.09c3.71-1.067,8.209-2.17,12.085-2.298  c5.762-0.189,7.33,3.323,7.706,8.453C173.779,232.508,172.787,232.991,171.788,233.395z M395.797,349.519  c0.549,0.464,1.25,0.635,1.94,0.561c0.791,0.873,1.523,1.773,2.063,2.795c-1.454-0.409-2.984-0.711-4.419-1.006  C395.55,351.104,395.686,350.313,395.797,349.519z M387.853,345.804c4.116-2.391,3.975,1.397,3.227,4.934  c-2.215-0.807-4.431-1.665-6.496-2.777C385.672,347.243,386.72,346.462,387.853,345.804z M378.964,336.825  c2.007,1.692,1.141,4.656,0.606,7.483c-2.212-2.019-4.392-4.052-6.647-6.033c0.351-0.214,0.709-0.442,1.1-0.692  C376.171,336.212,376.766,334.971,378.964,336.825z M417.718,293.221c-2.327,5.686-3.087,11.896-5.456,17.583  c-0.132,0.202-0.15,0.322-0.143,0.386c-0.011,0.029-0.019,0.057-0.029,0.085c-0.045,0.021-0.155,0.032-0.451,0.07  c-2.455,0.32-7.137-3.475-9.567-4.521c-4.128-1.776-7.544-3.54-11.33-5.952c-2.599-1.655-5.437-3.057-8.413-3.895  c-5.542-1.559-13.064-1.309-18.141,1.703c-2.941,1.745-3.852,4.487-5.876,7.081c-2.25,2.883-5.997,4.772-8.658,7.386  c-3.494,3.432-3.707,5.036,0.045,8.181c2.917,2.444,4.666,5.608,7.249,8.323c2.939,3.089,6.168,5.994,9.173,9.037  c4.825,4.885,9.963,11.418,16.106,14.639c2.581,1.353,5.431,2.522,8.221,3.515c0.28,0.375,0.665,0.657,1.139,0.733  c0.169,0.027,0.338,0.054,0.507,0.082c0.343,0.055,0.663,0.04,0.955-0.03c1.32,0.293,3.18,0.646,4.827,0.976  c-1.56,0.466-3.16,0.804-3.819,0.949c-4.095,0.903-8.77,0.573-12.955,0.261c-7.012-0.522-17.438-1.006-22.642-6.433  c-4.44-4.63-7.596-9.851-13.139-13.425c-2.623-1.691-5.395-2.728-7.875-4.672c-5.755-4.513-3.292-13.643,0.454-18.575  c2.348-3.09,6.119-4.523,8.221-7.689c0.815-1.229-0.744-2.484-1.896-1.896c-2.069,1.056-4.34,1.679-6.188,3.137  c-2.039,1.609-3.714,3.903-4.979,6.148c-1.386,2.46-3.42,5.703-3.386,8.717c-0.992,2.459-1.584,5.073-1.158,7.697  c0.348,2.136,1.511,3.791,2.938,5.266c-1.186-0.471-2.397-1.175-3.817-2.328c-1.546-1.255-3.065-2.543-4.587-3.828  c-5.988-5.052-13.82-10.857-21.398-13.113c-4.078-1.213-8.371-1.653-12.462-2.717c-4.577-1.19-7.958-2.09-12.69-1.53  c-4.441,0.525-8.86,1.33-13.292,1.937c-5.606,0.768-10.505-0.053-15.929-1.397c-4.502-1.116-9.116-2.416-13.245-4.561  c-3.577-1.859-6.874-3.997-10.753-5.244c-8.128-2.612-17.075-0.58-25.428-0.309c-10.495,0.341-18.991-3.565-27.944-8.678  c-7.513-4.291-17.229-9.943-20.923-18.12c-1.064-2.354-4.67-0.653-4.068,1.715c1.958,7.697,8.442,13.04,14.706,17.513  c0.748,0.534,1.509,1.059,2.273,1.581c-1.616-0.594-3.222-1.209-4.82-1.809c-4.077-1.528-9.58-4.904-12.583-8.089  c-3.535-3.75-7.813-9.388-8.544-14.407c-0.047-0.326-0.488-0.195-0.523,0.071c-0.778,5.834,2.006,9.181,4.73,14.133  c2.533,4.605,7,7.759,11.277,10.695c4.727,3.245,11.086,5.67,16.599,7.046c3.91,0.976,8.131,1.9,12.326,2.181  c1.021,0.372,2.049,0.719,3.085,1.032c8.604,2.601,18.063,1.613,26.833,0.416c5.79-0.79,10.693-0.191,16.001,2.438  c3.129,1.55,5.981,3.232,9.162,4.562c-0.752,0.329-1.487,0.65-2.141,0.989c-2.794,1.449-5.416,3.151-8.285,4.471  c-5.611,2.58-11.476,5.307-16.406,9.082c-4.503,3.449-8.828,8.111-11.461,13.172c-2.846,5.469-3.681,11.468-5.219,17.359  c-1.627,6.235-4.447,11.54-7.948,16.877c-0.739,1.126-1.418,2.192-2.067,3.24c-0.187,0.081-0.345,0.213-0.455,0.388  c-7.813,3.543-15.536,5.121-21.813-2.968c-0.625-0.805-2.024,0.263-1.423,1.098c2.773,3.855,6.486,7.798,11.444,8.525  c2.875,0.421,6.055-0.207,9.095-1.296c-1.135,2.459-2.038,5.067-2.708,8.188c-3.005,14.014-1.338,28.561,1.604,42.463  c0.315,1.489,2.456,1.049,2.539-0.344c0.888-14.87-2.469-28.909,1.851-43.57c0.927-3.148,2.431-5.89,4.149-8.519  c4.976,0.591,7.741-1.842,11.485-4.959c4.605-3.833,8.677-7.192,11.862-12.322c3.747-6.033,7.949-11.914,11.16-18.253  c0.484-0.956-0.79-2.12-1.57-1.211c-5.376,6.263-9.735,13.014-14.423,19.771c-2.491,3.59-5.71,6.157-8.966,9.015  c-1.459,1.281-2.895,2.941-4.571,3.941c-0.06,0.036-1.372,0.58-2.911,1.012c1.079-1.519,2.181-3.038,3.242-4.615  c3.185-4.732,5.3-10.195,6.71-15.706c1.514-5.916,2.2-12.107,5.625-17.339c3.847-5.877,9.248-10.033,15.232-13.505  c5.356-3.108,10.746-5.855,15.69-9.606c1.564-1.187,3.333-2.388,4.758-3.85c7.108,2.445,14.869,4.51,22.276,3.707  c5.228-0.566,10.424-1.56,15.666-1.982c1.438-0.116,2.796-0.01,4.113,0.214c-2.424,3.907-3.941,9.963-4.796,12.35  c-3.55,9.91-6.396,19.83-12.607,28.474c-5.592,7.783-11.827,14.842-15.598,23.772c-3.987,9.443-4.325,19.223-5.015,29.301  c-0.147,2.156,3.073,2.452,3.665,0.496c2.86-9.459,3.287-19.25,7.422-28.378c3.712-8.193,9.769-14.77,14.909-22.044  c3.247-4.595,5.624-9.551,7.573-14.688c1.879,13.109-1.616,26.197-2.983,39.418c-1.354,13.086,1.521,23.971,9.658,34.357  c4.627,5.907,7.503,12.482,9.282,19.741c1.599,6.521,4.531,11.75,7.503,17.704c1.66,3.323,3.203,7.462,2.44,11.242  c-0.636,3.152-2.92,5.85-4.57,8.534c-1.964,3.195-3.496,6.687-6.732,8.799c-3.155,2.06-6.946,3.682-10.497,4.897  c-7.189,2.46-15.156,2.905-22.611,4.207c-7.776,1.358-15.521,2.877-23.33,4.047c-13.995,2.097-28.048,0.634-42.032,2.202  c-6.654,0.746-14.374-0.161-20.976-1.227c-6.767-1.093-13.027-2.815-19.42-5.178c-6.001-2.218-12.172-4.504-17.179-8.687  c-5.055-4.223-8.706-10.163-12.948-15.116c-2.422-2.828-4.101-6.649-6.109-9.807c-2.247-3.533-3.99-7.447-4.957-11.534  c-0.087-0.368-0.171-0.742-0.253-1.119c0.028-4.348,1.519-8.508,1.986-12.93c0.44-4.162-0.136-8.155-0.923-12.112  c-0.124-5.576-1.107-10.854-1.614-16.556c-0.393-4.417,0.427-8.753,1.073-13.129c1.041-5.624,1.976-11.235,1.152-17.154  c-1.489-10.692-4.603-20.51-3.977-31.485c0.64-11.214,3.32-22.243,4.5-33.41c1.152-10.907-2.007-20.696-2.742-31.454  c-0.717-10.499,0.032-21.621,1.525-31.991c0.878-6.092,2.365-11.047,4.395-16.827c0.702-1.998,1.243-4.733,2.213-7.075  c2.164,0.309,4.316,0.66,6.44,1.106c2.06,0.432,4.1,0.923,6.137,1.146c-0.643,0.731-0.63,1.85-0.209,2.679  c1.342,2.644,5.935,3.575,9.969,4.096c-4.523,1.23-9.163,3.909-12.765,6.233c-3.007,1.94-8.935,3.95-9.99,7.632  c-0.274,0.955,0.166,2.271,1.109,2.724c4.189,2.016,33.817,8.396,33.947-0.755c3.387,0.13,6.87-0.174,10.189-0.119  c4.811,0.081,9.343-0.098,14.108-0.708c4.722-0.604,9.523-0.805,14.269-0.946c2.821-0.084,6.193-0.288,8.765-1.47  c5.861-2.695,7.957-9.522,6.495-15.493c-3.443-14.066-20.194-9.2-30.587-3.745c0.907-2.857,1.274-5.671-1.035-8.466  c-0.633-0.766-1.378-1.358-2.197-1.814c3.417-6.757,0.048-16.595-7.138-19.033c-0.163-0.055-0.325-0.092-0.487-0.144  c-0.238-5.717-1.194-12.744-7.189-15.16c-5.047-2.035-10.335-0.806-15.253,0.959c-1.128,0.145-2.251,0.28-3.365,0.374  c-0.091,0.008-0.182,0.014-0.272,0.021c-0.2-1.459-0.905-2.713-1.737-4.325c-0.04-0.078-0.072-0.165-0.11-0.245  c3.303,0.589,6.67,0.561,10.352-0.967c5.466-2.269,8.101-8.498,7.054-14.146c-1.486-8.013-7.66-6.838-13.749-9.386  c-1.993-0.834-3.77-1.021-5.864-1.604c-3.023-0.842-6.232-2.158-8.738-4.192c0.904-0.205,1.9-0.32,2.417-0.43  c2.682-0.57,5.414-0.765,8.119-1.181c3.193-0.491,6.737-0.811,9.985-1.659c1.445,4.163,7.16,9.356,9.046,10.901  c7.382,6.044,18.707,14.938,27.862,7.743c3.349-2.632,6.262-6.364,5.643-10.859c-1.383-10.046-15.765-10.826-23.623-11.805  c-2.233-0.278-4.862-0.826-7.504-1.201c0.257-1.533-0.508-3.831-0.828-4.951c-0.41-1.438-1.139-2.899-2.12-4.108  c0.188-0.129,0.328-0.313,0.382-0.538c2.285,1.912,4.12,4.391,5.465,7.19c0.536,1.114,2.052,0.448,2.135-0.579  c0.313-3.841-2.277-6.931-5.367-8.887c-3.091-1.958-6.312-2.349-9.773-2.256c0.18-0.188,0.352-0.389,0.512-0.605  c0.2-0.27,0.265-0.567,0.233-0.856c0.431-0.59,0.874-1.183,1.39-1.731c2.799-2.968,6.362-4.922,10.183-6.251  c3.018-1.049,5.216-1.643,7.82-3.481c1.287-0.909,2.668-2.207,4.117-2.859c4.225-1.903,3.367,0.003,5.866-0.694  c3.417-0.953,6.43-3.249,9.877-3.783c8.673-1.345,15.672,2.792,21.254,9.215c0.668,0.769,1.445,1.534,2.423,1.915  c2.513,0.979,5.22-0.437,7.788-0.058c4.029,0.595,5.542,4.342,8.781,6.419c1.422,0.912,3.11-0.879,2.279-2.279  c-1.848-3.113-3.277-6.613-6.563-8.504c-1.793-1.032-5.965,0.252-6.869-1.631c-0.458-0.955,0.146-2.147,1.046-2.704  c1.69-1.046,3.038-0.617,4.571-2.081c1.108-1.059,1.841-2.531,2.641-3.817c1.621-2.605,3.223-5.227,6.435-5.959  c2.446-0.558,5.047-0.041,7.459-0.717c2.561-0.717,4.288-2.789,6.436-4.216c3.438-2.286,6.937-4.655,10.918-2.021  c1.92,1.271,3.035,3.182,5.104,4.209c-2.215,6.012-3.065,11.728,1.402,17.239c2.835,3.5,10.13,6.227,13.078,2.409  c0.252,0.545,0.568,1.087,0.971,1.627c1.771,2.371,4.458,4.104,6.781,5.903c2.6,2.014,5.228,4.511,8.152,6.078  c2.234,1.196,5.311,1.81,7.204,3.753c1.87,1.919,2.383,4.991,3.872,7.241c3.758,5.68,9.162,7.882,14.1,12.055  c3.953,3.339,7.574,7.072,10.792,11.126c2.89,3.641,6.58,5.859,10.174,8.837c1.52,1.259,7.962,4.965,9.718,7.605  c0.071,0.383,0.216,0.697,0.419,0.932c0.023,0.126,0.048,0.253,0.035,0.37c-0.164,1.427-1.989,3.153-2.662,4.479  c-1.017,2.005-1.896,4.081-2.853,6.114c-0.942,2.004-2.762,4.617-3.627,7.135c-0.255,0.115-0.486,0.27-0.675,0.47  c-0.4-2.103-0.879-4.177-1.417-6.178c-0.722-2.681-0.842-7.414-4.528-7.6c-3.697-0.187-6.424,5.434-7.896,8.06  c-0.738,1.315-1.951,3.029-3.015,4.848c-2.515,2.509-5.75,6.744-5.495,9.861c0.286,3.506,3.849,6.852,6.533,8.707  c7.266,5.024,17.343,3.249,17.074-6.654c-0.04-1.473-0.141-2.968-0.292-4.471c2.656,2.198,7.768,2.319,11.205,0.806  c2.852-1.255,6.862-3.511,8.29-6.412c0.508-1.033,0.78-2.155,0.896-3.314c2.693,2.063,8.025,1.836,11.183-0.305  c0.729,0.556,1.599,1.019,2.399,1.437c1.263,0.657,2.423,1.298,3.618,2.072c0.617,0.4,1.269,0.743,1.953,0.908  c-2.57,1.48-4.701,3.496-5.542,6.362c-1.036,3.53,1.081,9.982,4.856,11.89c-0.974,0.986-1.745,2.083-2.178,3.307  c-2.061,5.833,1.631,11.429,5.415,15.43c4.375,4.626,8.938,10.779,16.078,9.982c6.434-0.719,11.543-7.467,15.315-12.175  c0.267-0.333,0.51-0.701,0.766-1.049c1.178,2.093,2.158,4.716,2.52,6.069c0.836,3.123,1.205,6.733,0.971,9.96  c-0.502,6.935-2.664,11.385-0.534,18.172c1.167,3.718,2.979,7.651,3.203,11.585C421.179,286.207,419.183,289.642,417.718,293.221z   M369.769,329.078c-0.159,1.724-0.913,3.294-1.531,4.894c-2.364-2.283-4.633-4.641-6.887-7.014  C365.322,325.166,370.488,321.28,369.769,329.078z M331.442,216.708c-1.16,0.056-3.209-0.532-4.206-1.065  c-2.771-1.484-5.732-4.604-4.567-7.89c0.777-2.192,2.713-4.523,3.889-6.566c0.09-0.156,0.146-0.311,0.188-0.463  c1.261-1.877,2.538-3.74,3.79-5.555c0.313-0.454,2.25-3.48,2.484-3.432c0.107,0.022,0.536,2.409,0.575,2.567  c0.696,2.78,1.475,5.45,1.901,8.292c0.4,2.669,0.588,5.383,0.842,8.068C336.637,213.802,337.585,216.414,331.442,216.708z"/>
<path d="M373.768,248.166c1.327-4.127,1.096-8.822,1.623-13.111c0.351-2.852,0.748-6.842-1.854-8.857  c-3.332-2.582-6.21,1.017-8.276,3.199c-2.588,2.734-6.046,5.366-9.258,7.319c-2.619,1.591-5.372,2.669-6.028,6.139  c-0.688,3.64,1.942,7.144,4.912,8.91C361.504,255.701,370.914,257.045,373.768,248.166z M355.348,242.531  c0.988-1.87,3.377-2.606,4.555-4.547c2.173-1.324,4.174-3.475,5.781-4.723c2.374-1.842,6-5.867,5.882-0.617  c-0.045,1.992-0.565,3.944-0.761,5.922c-0.278,2.815-0.098,5.783-1.167,8.462c-1.616,4.048-5.059,3.59-8.5,2.364  C358.457,248.437,353.322,246.366,355.348,242.531z"/>
<path d="M189.043,125.005c3.329,2.009,1.995,2.696,3.652,5.253c0.814,1.257,4.843,1.726,4.841,1.721  c0.368,1.141,1.362,1.573,2.489,1.413c3.147-0.445,5.258-1.07,7.947,1.83c0.891,0.96,1.345,2.044,2.346,2.955  c1.835,1.669,4.731-0.434,3.475-2.681c-3.624-6.478-6.804-8.212-13.479-6.408c-0.302-0.387-0.64-0.734-1.064-0.947  c-1.137-0.57-2.263,0.301-3.055-0.006c-1.637-0.636-1.801-5.528-3.97-7.1c-3.516-2.548-11.234,0.35-12.011,4.665  c-0.069,0.382,0.383,0.722,0.69,0.402C183.365,123.544,186.277,123.337,189.043,125.005z"/>
<path d="M232.731,114.092c0.841-1.495,4.159-1.949,5.645-1.785c4.029,0.444,3.499,3.989,6.17,5.457  c1.216,0.668,2.306,0.216,3.526,0.005c3.648-0.63,4.35,1.903,6.375,4.536c1.282,1.666,4.662,0.829,3.775-1.591  c-1.158-3.161-3.21-6.815-6.726-7.764c-1.589-0.429-2.682,0.414-4.092,0.3c-2.063-0.166-3.173-2.372-4.938-3.334  c-2.72-1.483-5.466-1.135-8.126,0.265c-1.524,0.802-3.417,2.03-2.369,3.912C232.131,114.379,232.571,114.377,232.731,114.092z"/>
<path d="M297.08,172.693c3.968,1.193,12.538,5.69,15.639,0.221c2.217-3.912-3.593-10.885-6.371-13.136  c-4.363-3.535-17.893,2.879-15.622,9.21C291.592,171.404,294.937,172.049,297.08,172.693z M295.158,165.352  c2.836-1.858,7.107-4.028,8.849-2.913c1.417,0.907,5.818,6.844,4.131,8.093c-1.856,1.374-7.219-1.706-9.224-2.167  c-0.623-0.144-3.745-0.559-4.02-1.372C294.799,166.712,295.009,166.034,295.158,165.352z"/>
<path d="M306.343,186.899c-3.925,1.138-3.188,1.062-4.71-2.582c-1.294-3.095-3.269-4.533-6.608-4.398  c-1.828,0.073-6.214,1.786-2.219,2.728c1.569,0.37,2.405-1.02,4.149,0.596c1.244,1.152,1.705,3.072,2.021,4.667  c0.257,1.298,0.373,2.708,1.518,3.597c1.179,0.915,2.682,0.61,3.99,0.3c4.375-1.036,7.804-2.21,9.945,3.214  c0.55,1.393,2.515,1.56,3.007,0c1.182-3.748-2.059-7.059-5.479-8.243C310.024,186.11,308.268,186.341,306.343,186.899z"/>
<path d="M318.773,176.692c1.773,0.062,3.541-0.462,5.162,0.672c1.044,0.73,0.96,2.348,1.141,3.485c0.258,1.626,3.088,1.657,3.315,0  c0.36-2.629-0.26-5.339-2.871-6.546c-2.03-0.939-6.572-0.893-7.017,2.035C318.476,176.52,318.576,176.686,318.773,176.692z"/>
<path d="M394.606,267.56c-0.523-3.289-3.036-6.152-6.595-4.836c-2.325,0.859-4.508,3.191-5.781,5.302  c-0.112,0.186-0.215,0.396-0.311,0.613c-0.616,1.037-1.237,2.117-1.667,3.246c-0.536,1.409-0.469,2.792-0.739,4.255  c-0.229,1.24,1.157,2.148,2.139,1.245c1.153-1.062,1.554-2.585,2.236-3.968c1.076-2.183,2.139-5.356,4.735-6.169  c0.533-0.167,1.189-0.073,1.528,0.371c0.46,0.604-1.42,3.11-1.812,3.741c-1.041,1.674-1.553,3.933-1.37,5.773  c-0.46,2.526-0.515,5.08,1.885,6.75c0.789,0.548,2.002,0.303,2.65-0.342c2.19-2.18,3.795-6.932,3.17-10.614  C394.885,271.127,394.884,269.308,394.606,267.56z"/>
<path d="M390.09,256.624c-3.188,0.333-5.797,1.823-8.394,3.615c-0.396,0.273-0.057,0.856,0.376,0.644  c2.146-1.05,4.387-2.081,6.813-2.206c2.5-0.129,3.725,0.85,5.463,2.497c0.735,0.696,1.787-0.176,1.36-1.05  C394.396,257.436,393.281,256.29,390.09,256.624z"/>
<path d="M399.141,261.956c0.85,3.069,1.652,6.154,1.515,9.369c-0.114,2.688-0.789,5.304-0.901,7.999  c-0.044,1.055,1.433,1.146,1.754,0.237c2.208-6.248,1.339-11.909-0.492-18.122C400.664,260.241,398.805,260.745,399.141,261.956z"/>
<path d="M194.633,297.861c-5.754-1.859-11.217-2.532-16.472-5.87c-4.723-3-7.334-7.63-11.33-11.396  c-0.586-0.552-1.357,0.265-0.867,0.867c3.908,4.801,6.123,10.168,11.36,13.793c5.482,3.794,10.433,4.772,16.933,5.38  C195.906,300.79,196.082,298.329,194.633,297.861z"/>
<path d="M209.686,297.55c-3.837-1.677-7.824-2.401-11.831-3.532c-5.505-1.554-10.889-4.446-15.245-8.164  c-0.402-0.344-0.943,0.185-0.584,0.584c3.341,3.712,6.941,7.441,11.522,9.6c4.735,2.231,10.051,2.948,15.153,3.85  C210.005,300.119,211.117,298.175,209.686,297.55z"/>
<path d="M238.972,425.291c1.494-10.848,1.927-21.935,4.398-32.624c2.428-10.5,6.217-20.676,11.088-30.276  c0.719-1.417-1.403-2.672-2.14-1.251c-4.937,9.516-9.63,19.112-12.605,29.447c-3.041,10.561-5.22,23.353-3.804,34.289  C236.109,426.42,238.708,427.212,238.972,425.291z"/>
<path d="M148.355,351.051c-2.187,9.927-4.411,20.047-3.536,30.182c-0.925-2.207-1.87-4.372-2.717-6.474  c-1.536-3.812-3.211-7.547-5.327-11.079c-3.237-5.404-7.275-9.609-6.281-16.407c0.198-1.35-1.766-1.984-2.107-0.581  c-2.226,9.157,3.954,15.169,7.585,23.144c2.367,5.197,4.055,10.631,6.181,15.92c2.52,6.271,5.309,12.875,6.712,19.652  c0.61,2.948,1.53,6.733,0.728,9.71c-0.711,2.64-2.132,5.109-2.844,7.831c-0.005,0.018-0.008,0.035-0.013,0.053  c-2.024-11.546-7.441-21.877-15.073-31.622c-0.511-0.652-1.612,0.2-1.151,0.889c4.365,6.524,8.223,13.712,10.438,21.271  c2.23,7.614,2.693,15.97,3.432,23.845c0.035,0.372,0.18,0.652,0.364,0.885c-0.063,17.396,7.463,34.303,23.558,43.357  c1.487,0.836,3.716-0.975,2.535-2.535c-6.747-8.91-15.222-15.826-18.455-27.018c-3.527-12.208-1.072-22.959,1.872-34.94  c1.005-4.086,1.604-8.308,1.128-12.501c3.756,2.766,8.444,3.765,13.276,1.298c1.181-0.603,0.313-2.24-0.852-2.021  c-5.041,0.943-9.74-0.677-13.33-3.749c-1.316-4.74-3.511-9.246-4.668-14.039c-2.456-10.172-1.658-20.309-0.065-30.426  c0.966,2.721,2.209,5.366,3.805,7.539c2.45,3.336,6.382,4.469,10.177,5.654c1.613,0.504,2.629-1.908,1.15-2.728  c-3.959-2.193-7.424-3.113-9.704-7.464c-6.662-12.716-6.316-29.608-3.381-43.35c0.207-0.97-1.192-1.365-1.491-0.411  c-3.339,10.691-4.668,23.417-2.327,34.454C148.09,349.936,148.218,350.491,148.355,351.051z"/>
<path d="M172.587,493.379c-18.659-8.598-31.064-24.721-31.7-45.76c-0.047-1.556-2.43-1.566-2.426,0  c0.061,21.606,11.67,41.899,33.355,47.586C172.873,495.482,173.648,493.867,172.587,493.379z"/>
<path d="M194.631,467.713c0.873,0.808,2.365-0.23,1.695-1.308c-4.42-7.113-8.077-14.792-9.553-23.063  c-1.557-8.724-1.398-17.604-1.329-26.426c0.009-1.102-1.662-1.094-1.706,0C183.066,433.602,181.041,455.129,194.631,467.713z"/>
<path d="M207.074,463.8c1.181,0.95,2.611-0.477,1.658-1.659c-3.87-4.801-8.099-9.235-10.738-14.878  c-2.901-6.204-4.98-12.803-7.064-19.312c-0.494-1.543-2.895-0.903-2.441,0.673C192.347,442.042,195.824,454.746,207.074,463.8z"/>
<path d="M194.28,411.106c4.441-2.265,7.874-6.122,10.777-10.109c4.053-5.564,8.082-11.198,11.311-17.283  c3.017-5.686,5.867-11.483,7.879-17.61c2.236-6.809,3.602-13.856,5.814-20.675c0.228-0.704-0.873-1.001-1.105-0.305  c-4.313,12.905-8.837,24.967-15.579,36.842c-2.991,5.269-6.673,9.963-10.149,14.908c-3.185,4.529-7.295,8.195-10.552,12.628  C191.926,410.523,193.335,411.588,194.28,411.106z"/>
<path d="M207.801,418.09c5.159-8.011,8.69-16.863,12.837-25.41c3.427-7.062,6.506-13.401,8.067-21.157  c0.087-0.434-0.545-0.618-0.668-0.185c-2.339,8.231-7.468,14.974-11.447,22.443c-4.044,7.592-8.02,15.297-10.981,23.384  C205.124,418.491,207.096,419.186,207.801,418.09z"/>
<path d="M247.686,475.673c-4.109-1.751-8.515-2.198-12.616-4.066c-3.999-1.821-7.468-4.296-10.858-7.083  c-7.214-5.93-12.25-13.192-17.135-21.066c-0.244-0.394-0.839-0.046-0.621,0.363c4.747,8.933,9.534,17.208,17.111,24.043  c7.07,6.378,14.284,8.654,23.568,9.845C248.186,477.844,248.66,476.087,247.686,475.673z"/>
<path d="M220.936,445.389c4.464,5.351,8.308,11.586,14.192,15.526c6.116,4.097,13.597,6.5,20.781,7.773  c1.519,0.269,2.155-1.859,0.645-2.339c-6.769-2.151-13.938-4.064-20.022-7.836c-5.866-3.637-9.897-9.235-14.371-14.35  C221.421,443.317,220.23,444.543,220.936,445.389z"/>
<path d="M174.525,368.903c1.598,0.555,2.698-2.002,1.161-2.752c-11.159-5.443-13.235-18.89-15.963-29.757  c-0.419-1.67-2.933-0.961-2.57,0.708C159.661,348.665,161.621,364.423,174.525,368.903z"/>
<path d="M172.499,352.36c2.412,4.636,6.057,7.162,9.689,10.671c0.783,0.757,2.175-0.228,1.549-1.195  c-2.376-3.674-5.862-6.412-8.2-10.188c-2.952-4.769-4.006-10.36-5.372-15.723c-0.307-1.204-2.101-0.691-1.851,0.51  C169.432,341.796,169.935,347.432,172.499,352.36z"/>
<path d="M130.569,313.437c0.597,14.025,2.777,30.667,13.765,40.827c1.165,1.077,3.216-0.322,2.281-1.76  c-3.688-5.678-7.105-10.852-9.634-17.207c-2.875-7.226-3.554-14.174-4.12-21.86C132.754,311.982,130.505,311.951,130.569,313.437z"/>
<path d="M125.66,409.215c3.593,8.689,6.929,17.557,7.539,27.032c0.111,1.73,2.777,1.763,2.719,0  c-0.332-9.955-4.457-18.844-8.479-27.782C126.991,407.473,125.237,408.194,125.66,409.215z"/>
<path d="M165.887,453.603c3.365,9.847,8.104,17.504,16.493,23.828c8.854,6.672,18.381,6.8,28.935,7.723  c1.328,0.116,1.496-1.885,0.305-2.251c-8.537-2.624-17.116-2.364-24.974-7.337c-8.419-5.329-15.125-13.16-18.6-22.558  C167.553,451.674,165.416,452.226,165.887,453.603z"/>
<path d="M172.083,330.925c15.225,0.49,32.106-3.399,42.375-15.48c0.354-0.416-0.247-1.022-0.603-0.603  c-4.777,5.62-13.912,8.958-20.86,10.727c-6.925,1.763-14.145,2.195-21.178,3.394C170.67,329.157,171,330.89,172.083,330.925z"/>
<path d="M343.495,266.02c-0.393-3.65-1.624-6.53-3.086-9.79c-0.348-0.775-1.376-0.173-1.266,0.534  c0.458,2.956,1.317,5.667,1.424,8.744c0.059,1.687,0.6,5.361-0.167,6.908c-0.683,1.376,0.889,2.455,2.03,1.566  C344.63,272.271,343.753,268.42,343.495,266.02z"/>
<path d="M344.414,260.702c0.889,5.171,0.559,10.483-1.198,15.463c-0.393,1.114,1.206,2.015,1.982,1.154  c4.152-4.607,1.601-11.758,0.244-16.9C345.264,259.744,344.299,260.038,344.414,260.702z"/>
<path d="M258.505,305.57c-3.168-0.2-6.492-0.938-9.335-2.382c-2.816-1.43-4.756-3.98-7.52-5.447  c-0.291-0.154-0.703,0.104-0.587,0.452c2.42,7.313,10.224,12.188,17.871,10.545C260.794,308.338,260.24,305.68,258.505,305.57z"/>
<path d="M268.862,302.774c-3.479-0.86-6.251-2.658-9.486-4.068c-0.552-0.241-1.091,0.252-0.82,0.82  c1.316,2.764,3.463,4.861,6.243,6.169c3.083,1.452,6.011,1.615,9.244,2.307c1.086,0.233,2.448-1.029,1.625-2.114  C273.963,303.64,271.478,303.419,268.862,302.774z"/>
<path d="M287.219,305.722c-1.88-0.942-3.842-1.68-5.654-2.757c-1.868-1.111-4.161-2.254-5.29-4.158  c-0.542-0.915-1.971-0.084-1.427,0.834c2.453,4.139,5.771,9.997,11.516,9.235C287.839,308.68,288.904,306.566,287.219,305.722z"/>
<path d="M341.086,300.192c-3.888,1.965-7.409,4.081-10.154,7.535c-2.532,3.187-3.718,7.096-5.785,10.564  c-0.343,0.576,0.555,1.1,0.897,0.524c4.216-7.08,9.156-12.376,15.902-17.151C342.837,301.035,342.077,299.691,341.086,300.192z"/>
<path d="M375.329,287.897c-3.162,0.521-6.336,0.684-9.305,2.003c-2.939,1.307-5.587,3.185-8.201,5.033  c-0.373,0.264-0.047,0.853,0.363,0.622c2.804-1.583,5.938-3.128,9.042-4.016c2.851-0.815,5.846-0.61,8.703-1.457  C377.356,289.659,376.742,287.664,375.329,287.897z"/>
<path d="M371.335,282.728c-4.928,0.921-9.833,1.97-14.736,3.01c-1.287,0.273-0.729,2.175,0.538,1.953  c4.947-0.868,9.917-1.622,14.829-2.675C373.467,284.693,372.822,282.45,371.335,282.728z"/>
<g>
</g>
<g>
</g>
<g>
</g>
<g>
</g>
<g>
</g>
<g>
</g>
<g>
</g>
<g>
</g>
<g>
</g>
<g>
</g>
<g>
</g>
<g>
</g>
<g>
</g>
<g>
</g>
<g>
</g>
</svg>
